solid OpenSCAD_Model
  facet normal 0 0 -1
    outer loop
      vertex 9.698 2.4 -10.959
      vertex 10 22.6 -10.959
      vertex 10 2.4 -10.959
    endloop
  endfacet
  facet normal -0 0 -1
    outer loop
      vertex 10 22.6 -10.959
      vertex 9.698 2.4 -10.959
      vertex 9.698 22.6 -10.959
    endloop
  endfacet
  facet normal 0 1 -0
    outer loop
      vertex 10 2.4 -15
      vertex 9.698 2.4 -10.959
      vertex 10 2.4 -10.959
    endloop
  endfacet
  facet normal 0 1 0
    outer loop
      vertex 9.698 2.4 -10.959
      vertex 10 2.4 -15
      vertex 9.698 2.4 -15
    endloop
  endfacet
  facet normal 0 -1 0
    outer loop
      vertex 9.698 22.6 -15
      vertex 10 22.6 -10.959
      vertex 9.698 22.6 -10.959
    endloop
  endfacet
  facet normal 0 -1 -0
    outer loop
      vertex 10 22.6 -10.959
      vertex 9.698 22.6 -15
      vertex 10 22.6 -15
    endloop
  endfacet
  facet normal 1 0 0
    outer loop
      vertex 9.698 22.6 -10.959
      vertex 9.698 21.7462 -13.08
      vertex 9.698 22.6 -15
    endloop
  endfacet
  facet normal 1 -0 0
    outer loop
      vertex 9.698 2.4 -10.959
      vertex 9.698 21.7462 -13.08
      vertex 9.698 22.6 -10.959
    endloop
  endfacet
  facet normal 1 0 0
    outer loop
      vertex 9.698 21.7462 -13.08
      vertex 9.698 2.4 -10.959
      vertex 9.698 2.99823 -13.08
    endloop
  endfacet
  facet normal 1 0 0
    outer loop
      vertex 9.698 22.6 -15
      vertex 9.698 21.7462 -13.08
      vertex 9.698 20.6377 -15
    endloop
  endfacet
  facet normal 1 0 0
    outer loop
      vertex 9.698 2.99823 -13.08
      vertex 9.698 2.4 -15
      vertex 9.698 4.10674 -15
    endloop
  endfacet
  facet normal 1 0 0
    outer loop
      vertex 9.698 2.4 -15
      vertex 9.698 2.99823 -13.08
      vertex 9.698 2.4 -10.959
    endloop
  endfacet
  facet normal 0 -0.866025 0.5
    outer loop
      vertex 0 21.7462 -13.08
      vertex 9.698 20.6377 -15
      vertex 9.698 21.7462 -13.08
    endloop
  endfacet
  facet normal -4.91686e-008 -0.866025 0.5
    outer loop
      vertex 9.698 20.6377 -15
      vertex 0 21.7462 -13.08
      vertex 0 20.6377 -15
    endloop
  endfacet
  facet normal 0 0.866025 0.5
    outer loop
      vertex 9.698 4.10674 -15
      vertex 0 2.99823 -13.08
      vertex 9.698 2.99823 -13.08
    endloop
  endfacet
  facet normal 3.59939e-008 0.866025 0.5
    outer loop
      vertex 0 2.99823 -13.08
      vertex 9.698 4.10674 -15
      vertex 0 4.10674 -15
    endloop
  endfacet
  facet normal 0 0 -1
    outer loop
      vertex 0 2.99823 -13.08
      vertex 9.698 21.7462 -13.08
      vertex 9.698 2.99823 -13.08
    endloop
  endfacet
  facet normal -0 0 -1
    outer loop
      vertex 9.698 21.7462 -13.08
      vertex 0 2.99823 -13.08
      vertex 0 21.7462 -13.08
    endloop
  endfacet
  facet normal 0 -0.535827 -0.844328
    outer loop
      vertex 0 -8.81678 -12.1353
      vertex 10 -7.22631 -13.1446
      vertex 10 -8.81678 -12.1353
    endloop
  endfacet
  facet normal -0 -0.535827 -0.844328
    outer loop
      vertex 10 -7.22631 -13.1446
      vertex 0 -8.81678 -12.1353
      vertex 0 -7.22631 -13.1446
    endloop
  endfacet
  facet normal 1 0 0
    outer loop
      vertex 10 -10.2732 7
      vertex 10 -10.8003 7
      vertex 10 -14.7343 2.81072
    endloop
  endfacet
  facet normal 1 0 2.27646e-007
    outer loop
      vertex 10 39.7343 2.81072
      vertex 10 37.763 7
      vertex 10 37.4312 7
    endloop
  endfacet
  facet normal 9.51792e-008 -0.0627905 -0.998027
    outer loop
      vertex 10 -1.88 -14.8817
      vertex 0 0 -15
      vertex 10 0 -15
    endloop
  endfacet
  facet normal 9.83372e-008 0 -1
    outer loop
      vertex 9.698 20.6377 -15
      vertex 0 20.6377 -15
      vertex 9.698 22.6 -15
    endloop
  endfacet
  facet normal 0 0 -1
    outer loop
      vertex 9.698 22.6 -15
      vertex 10 25 -15
      vertex 10 22.6 -15
    endloop
  endfacet
  facet normal 9.83372e-008 0 -1
    outer loop
      vertex 0 25 -15
      vertex 9.698 22.6 -15
      vertex 0 20.6377 -15
    endloop
  endfacet
  facet normal 9.53674e-008 -1.20004e-008 -1
    outer loop
      vertex 9.698 22.6 -15
      vertex 0 25 -15
      vertex 10 25 -15
    endloop
  endfacet
  facet normal 0 0 -1
    outer loop
      vertex 10 0 -15
      vertex 9.698 2.4 -15
      vertex 10 2.4 -15
    endloop
  endfacet
  facet normal 9.53674e-008 1.20004e-008 -1
    outer loop
      vertex 0 0 -15
      vertex 9.698 2.4 -15
      vertex 10 0 -15
    endloop
  endfacet
  facet normal 9.83372e-008 0 -1
    outer loop
      vertex 0 4.10674 -15
      vertex 9.698 2.4 -15
      vertex 0 0 -15
    endloop
  endfacet
  facet normal 9.83372e-008 0 -1
    outer loop
      vertex 9.698 2.4 -15
      vertex 0 4.10674 -15
      vertex 9.698 4.10674 -15
    endloop
  endfacet
  facet normal 1 0 2.27646e-007
    outer loop
      vertex 10 39.7343 2.81072
      vertex 10 38.0757 7
      vertex 10 37.763 7
    endloop
  endfacet
  facet normal 1 2.68246e-006 1.70234e-006
    outer loop
      vertex 10 39.7343 2.81072
      vertex 10 37.4312 7
      vertex 10 37.0757 7
    endloop
  endfacet
  facet normal 1 0 0
    outer loop
      vertex 10 39.7343 2.81072
      vertex 10 36.2686 7
      vertex 10 35.8003 7
    endloop
  endfacet
  facet normal 0 0.0627911 -0.998027
    outer loop
      vertex 10 26.88 -14.8817
      vertex 0 25 -15
      vertex 0 26.88 -14.8817
    endloop
  endfacet
  facet normal 1 0 0
    outer loop
      vertex 10 -13.5724 6.38669
      vertex 10 -13.0757 7
      vertex 10 -13.2352 7
    endloop
  endfacet
  facet normal 1 -5.49842e-007 4.45344e-007
    outer loop
      vertex 10 -13.0757 7
      vertex 10 -13.5724 6.38669
      vertex 10 -14.7343 2.81072
    endloop
  endfacet
  facet normal 1 0 0
    outer loop
      vertex 10 39.7343 2.81072
      vertex 10 35.2732 7
      vertex 10 34.6703 7
    endloop
  endfacet
  facet normal 0 0.809017 -0.587785
    outer loop
      vertex 10 36.5577 -9.56136
      vertex 0 37.6649 -8.0374
      vertex 10 37.6649 -8.0374
    endloop
  endfacet
  facet normal 0 0.809017 -0.587785
    outer loop
      vertex 0 37.6649 -8.0374
      vertex 10 36.5577 -9.56136
      vertex 0 36.5577 -9.56136
    endloop
  endfacet
  facet normal 0 1 -0
    outer loop
      vertex 10 39.9704 -0.941857
      vertex 0 39.9704 0.941857
      vertex 10 39.9704 0.941857
    endloop
  endfacet
  facet normal 0 1 0
    outer loop
      vertex 0 39.9704 0.941857
      vertex 10 39.9704 -0.941857
      vertex 0 39.9704 -0.941857
    endloop
  endfacet
  facet normal 0 0.187381 -0.982287
    outer loop
      vertex 0 26.88 -14.8817
      vertex 10 28.7303 -14.5287
      vertex 10 26.88 -14.8817
    endloop
  endfacet
  facet normal 0 0.187381 -0.982287
    outer loop
      vertex 10 28.7303 -14.5287
      vertex 0 26.88 -14.8817
      vertex 0 28.7303 -14.5287
    endloop
  endfacet
  facet normal 0 -1 0
    outer loop
      vertex 0 -14.9704 -0.941857
      vertex 10 -14.9704 0.941857
      vertex 0 -14.9704 0.941857
    endloop
  endfacet
  facet normal 0 -1 -0
    outer loop
      vertex 10 -14.9704 0.941857
      vertex 0 -14.9704 -0.941857
      vertex 10 -14.9704 -0.941857
    endloop
  endfacet
  facet normal 0 -0.929776 -0.368125
    outer loop
      vertex 0 -13.5724 -6.38669
      vertex 10 -14.2658 -4.63525
      vertex 0 -14.2658 -4.63525
    endloop
  endfacet
  facet normal 0 -0.929776 -0.368125
    outer loop
      vertex 10 -14.2658 -4.63525
      vertex 0 -13.5724 -6.38669
      vertex 10 -13.5724 -6.38669
    endloop
  endfacet
  facet normal 0 -0.637424 -0.770513
    outer loop
      vertex 0 -10.2682 -10.9345
      vertex 10 -8.81678 -12.1353
      vertex 10 -10.2682 -10.9345
    endloop
  endfacet
  facet normal -0 -0.637424 -0.770513
    outer loop
      vertex 10 -8.81678 -12.1353
      vertex 0 -10.2682 -10.9345
      vertex 0 -8.81678 -12.1353
    endloop
  endfacet
  facet normal 0 -0.425779 -0.904827
    outer loop
      vertex 0 -7.22631 -13.1446
      vertex 10 -5.52187 -13.9466
      vertex 10 -7.22631 -13.1446
    endloop
  endfacet
  facet normal -0 -0.425779 -0.904827
    outer loop
      vertex 10 -5.52187 -13.9466
      vertex 0 -7.22631 -13.1446
      vertex 0 -5.52187 -13.9466
    endloop
  endfacet
  facet normal 1 0 0
    outer loop
      vertex 10 -14.9704 -0.941857
      vertex 10 -9.98007 -0.634184
      vertex 10 -9.98007 0.634184
    endloop
  endfacet
  facet normal 1 0 0
    outer loop
      vertex 10 -9.98007 -0.634184
      vertex 10 -11.5577 -9.56136
      vertex 10 -10.2682 -10.9345
    endloop
  endfacet
  facet normal 1 -0 0
    outer loop
      vertex 10 -14.9704 0.941857
      vertex 10 -9.98007 0.634184
      vertex 10 -9.8211 1.89255
    endloop
  endfacet
  facet normal 1 0 0
    outer loop
      vertex 10 -9.98007 -0.634184
      vertex 10 -12.6649 -8.0374
      vertex 10 -11.5577 -9.56136
    endloop
  endfacet
  facet normal 1 -0 0
    outer loop
      vertex 10 -14.7343 2.81072
      vertex 10 -9.8211 1.89255
      vertex 10 -9.58536 2.81072
    endloop
  endfacet
  facet normal 1 0 0
    outer loop
      vertex 10 -9.98007 -0.634184
      vertex 10 -13.5724 -6.38669
      vertex 10 -12.6649 -8.0374
    endloop
  endfacet
  facet normal 1 0 0
    outer loop
      vertex 10 -9.98007 -0.634184
      vertex 10 -14.2658 -4.63525
      vertex 10 -13.5724 -6.38669
    endloop
  endfacet
  facet normal 1 0 0
    outer loop
      vertex 10 -9.8211 1.89255
      vertex 10 -14.7343 2.81072
      vertex 10 -14.9704 0.941857
    endloop
  endfacet
  facet normal 1 0 0
    outer loop
      vertex 10 -9.98007 -0.634184
      vertex 10 -14.7343 -2.81072
      vertex 10 -14.2658 -4.63525
    endloop
  endfacet
  facet normal 1 0 0
    outer loop
      vertex 10 -9.98007 0.634184
      vertex 10 -14.9704 0.941857
      vertex 10 -14.9704 -0.941857
    endloop
  endfacet
  facet normal 1 0 0
    outer loop
      vertex 10 -9.98007 -0.634184
      vertex 10 -14.9704 -0.941857
      vertex 10 -14.7343 -2.81072
    endloop
  endfacet
  facet normal 1 0 0
    outer loop
      vertex 10 35.1801 0.634184
      vertex 10 39.9704 0.941857
      vertex 10 39.7343 2.81072
    endloop
  endfacet
  facet normal 1 0 0
    outer loop
      vertex 10 39.9704 0.941857
      vertex 10 35.1801 0.634184
      vertex 10 39.9704 -0.941857
    endloop
  endfacet
  facet normal 1 0 0
    outer loop
      vertex 10 39.9704 -0.941857
      vertex 10 35.1801 -0.634184
      vertex 10 39.7343 -2.81072
    endloop
  endfacet
  facet normal 1 -0 0
    outer loop
      vertex 10 35.0211 -1.89255
      vertex 10 39.7343 -2.81072
      vertex 10 35.1801 -0.634184
    endloop
  endfacet
  facet normal 1 0 0
    outer loop
      vertex 10 39.7343 -2.81072
      vertex 10 34.7057 -3.12107
      vertex 10 39.2658 -4.63525
    endloop
  endfacet
  facet normal 1 -0 0
    outer loop
      vertex 10 34.2388 -4.30037
      vertex 10 39.2658 -4.63525
      vertex 10 34.7057 -3.12107
    endloop
  endfacet
  facet normal 1 -0 0
    outer loop
      vertex 10 33.6277 -5.41185
      vertex 10 38.5724 -6.38669
      vertex 10 34.2388 -4.30037
    endloop
  endfacet
  facet normal 1 0 0
    outer loop
      vertex 10 39.9704 -0.941857
      vertex 10 35.1801 0.634184
      vertex 10 35.1801 -0.634184
    endloop
  endfacet
  facet normal 1 0 0
    outer loop
      vertex 10 39.7343 2.81072
      vertex 10 35.0211 1.89255
      vertex 10 35.1801 0.634184
    endloop
  endfacet
  facet normal 1 0 -0
    outer loop
      vertex 10 35.0211 1.89255
      vertex 10 39.7343 2.81072
      vertex 10 34.7854 2.81072
    endloop
  endfacet
  facet normal 1 0 0
    outer loop
      vertex 10 34.7057 -3.12107
      vertex 10 39.7343 -2.81072
      vertex 10 35.0211 -1.89255
    endloop
  endfacet
  facet normal 1 0 0
    outer loop
      vertex 10 39.2658 -4.63525
      vertex 10 34.2388 -4.30037
      vertex 10 38.5724 -6.38669
    endloop
  endfacet
  facet normal 1 0 0
    outer loop
      vertex 10 38.5724 -6.38669
      vertex 10 33.6277 -5.41185
      vertex 10 37.6649 -8.0374
    endloop
  endfacet
  facet normal 1 -0 0
    outer loop
      vertex 10 32.8822 -6.43798
      vertex 10 37.6649 -8.0374
      vertex 10 33.6277 -5.41185
    endloop
  endfacet
  facet normal 1 0 0
    outer loop
      vertex 10 37.6649 -8.0374
      vertex 10 32.8822 -6.43798
      vertex 10 36.5577 -9.56136
    endloop
  endfacet
  facet normal 1 -0 0
    outer loop
      vertex 10 32.0139 -7.36258
      vertex 10 36.5577 -9.56136
      vertex 10 32.8822 -6.43798
    endloop
  endfacet
  facet normal 1 0 0
    outer loop
      vertex 10 36.5577 -9.56136
      vertex 10 32.0139 -7.36258
      vertex 10 35.2682 -10.9345
    endloop
  endfacet
  facet normal 1 -0 0
    outer loop
      vertex 10 31.0366 -8.17107
      vertex 10 35.2682 -10.9345
      vertex 10 32.0139 -7.36258
    endloop
  endfacet
  facet normal 1 0 0
    outer loop
      vertex 10 35.2682 -10.9345
      vertex 10 31.0366 -8.17107
      vertex 10 33.8168 -12.1353
    endloop
  endfacet
  facet normal 1 -0 0
    outer loop
      vertex 10 29.9657 -8.8507
      vertex 10 33.8168 -12.1353
      vertex 10 31.0366 -8.17107
    endloop
  endfacet
  facet normal 1 0 0
    outer loop
      vertex 10 33.8168 -12.1353
      vertex 10 29.9657 -8.8507
      vertex 10 32.2263 -13.1446
    endloop
  endfacet
  facet normal 1 -0 0
    outer loop
      vertex 10 28.8181 -9.39074
      vertex 10 32.2263 -13.1446
      vertex 10 29.9657 -8.8507
    endloop
  endfacet
  facet normal 1 0 0
    outer loop
      vertex 10 32.2263 -13.1446
      vertex 10 28.8181 -9.39074
      vertex 10 30.5219 -13.9466
    endloop
  endfacet
  facet normal 1 -0 0
    outer loop
      vertex 10 27.6118 -9.78269
      vertex 10 30.5219 -13.9466
      vertex 10 28.8181 -9.39074
    endloop
  endfacet
  facet normal 1 0 0
    outer loop
      vertex 10 30.5219 -13.9466
      vertex 10 27.6118 -9.78269
      vertex 10 28.7303 -14.5287
    endloop
  endfacet
  facet normal 1 -0 0
    outer loop
      vertex 10 26.3659 -10.0204
      vertex 10 28.7303 -14.5287
      vertex 10 27.6118 -9.78269
    endloop
  endfacet
  facet normal 1 0 0
    outer loop
      vertex 10 28.7303 -14.5287
      vertex 10 26.3659 -10.0204
      vertex 10 26.88 -14.8817
    endloop
  endfacet
  facet normal 1 -0 0
    outer loop
      vertex 10 25.1 -10.1
      vertex 10 26.88 -14.8817
      vertex 10 26.3659 -10.0204
    endloop
  endfacet
  facet normal 1 0 0
    outer loop
      vertex 10 25.1 -10.1
      vertex 10 25 -15
      vertex 10 26.88 -14.8817
    endloop
  endfacet
  facet normal 1 0 0
    outer loop
      vertex 10 25.1 -10.1
      vertex 10 22.6 -10.959
      vertex 10 25 -15
    endloop
  endfacet
  facet normal 1 -0 0
    outer loop
      vertex 10 0.0999994 -10.1
      vertex 10 22.6 -10.959
      vertex 10 25.1 -10.1
    endloop
  endfacet
  facet normal 1 0 0
    outer loop
      vertex 10 22.6 -10.959
      vertex 10 0.0999994 -10.1
      vertex 10 2.4 -10.959
    endloop
  endfacet
  facet normal 1 0 0
    outer loop
      vertex 10 0 -15
      vertex 10 2.4 -10.959
      vertex 10 0.0999994 -10.1
    endloop
  endfacet
  facet normal 1 0 0
    outer loop
      vertex 10 2.4 -10.959
      vertex 10 0 -15
      vertex 10 2.4 -15
    endloop
  endfacet
  facet normal 1 0 0
    outer loop
      vertex 10 -1.16586 -10.0204
      vertex 10 0 -15
      vertex 10 0.0999994 -10.1
    endloop
  endfacet
  facet normal 1 0 0
    outer loop
      vertex 10 -1.16586 -10.0204
      vertex 10 -1.88 -14.8817
      vertex 10 0 -15
    endloop
  endfacet
  facet normal 1 0 0
    outer loop
      vertex 10 -2.41177 -9.78269
      vertex 10 -1.88 -14.8817
      vertex 10 -1.16586 -10.0204
    endloop
  endfacet
  facet normal 1 0 0
    outer loop
      vertex 10 -3.73035 -14.5287
      vertex 10 -2.41177 -9.78269
      vertex 10 -3.61806 -9.39074
    endloop
  endfacet
  facet normal 1 0 0
    outer loop
      vertex 10 -2.41177 -9.78269
      vertex 10 -3.73035 -14.5287
      vertex 10 -1.88 -14.8817
    endloop
  endfacet
  facet normal 1 0 0
    outer loop
      vertex 10 -5.52187 -13.9466
      vertex 10 -3.61806 -9.39074
      vertex 10 -4.76571 -8.8507
    endloop
  endfacet
  facet normal 1 0 0
    outer loop
      vertex 10 -3.61806 -9.39074
      vertex 10 -5.52187 -13.9466
      vertex 10 -3.73035 -14.5287
    endloop
  endfacet
  facet normal 1 0 0
    outer loop
      vertex 10 -7.22631 -13.1446
      vertex 10 -4.76571 -8.8507
      vertex 10 -5.83663 -8.17107
    endloop
  endfacet
  facet normal 1 0 0
    outer loop
      vertex 10 -8.81678 -12.1353
      vertex 10 -5.83663 -8.17107
      vertex 10 -6.81393 -7.36258
    endloop
  endfacet
  facet normal 1 0 0
    outer loop
      vertex 10 -4.76571 -8.8507
      vertex 10 -7.22631 -13.1446
      vertex 10 -5.52187 -13.9466
    endloop
  endfacet
  facet normal 1 0 0
    outer loop
      vertex 10 -10.2682 -10.9345
      vertex 10 -6.81393 -7.36258
      vertex 10 -7.68218 -6.43798
    endloop
  endfacet
  facet normal 1 0 0
    outer loop
      vertex 10 -10.2682 -10.9345
      vertex 10 -7.68218 -6.43798
      vertex 10 -8.42771 -5.41185
    endloop
  endfacet
  facet normal 1 0 0
    outer loop
      vertex 10 -5.83663 -8.17107
      vertex 10 -8.81678 -12.1353
      vertex 10 -7.22631 -13.1446
    endloop
  endfacet
  facet normal 1 0 0
    outer loop
      vertex 10 -10.2682 -10.9345
      vertex 10 -8.42771 -5.41185
      vertex 10 -9.03875 -4.30037
    endloop
  endfacet
  facet normal 1 0 0
    outer loop
      vertex 10 -10.2682 -10.9345
      vertex 10 -9.03875 -4.30037
      vertex 10 -9.50567 -3.12107
    endloop
  endfacet
  facet normal 1 0 0
    outer loop
      vertex 10 -10.2682 -10.9345
      vertex 10 -9.50567 -3.12107
      vertex 10 -9.8211 -1.89255
    endloop
  endfacet
  facet normal 1 0 0
    outer loop
      vertex 10 -10.2682 -10.9345
      vertex 10 -9.8211 -1.89255
      vertex 10 -9.98007 -0.634184
    endloop
  endfacet
  facet normal 1 0 0
    outer loop
      vertex 10 -6.81393 -7.36258
      vertex 10 -10.2682 -10.9345
      vertex 10 -8.81678 -12.1353
    endloop
  endfacet
  facet normal 1 0 0
    outer loop
      vertex 10 25 -15
      vertex 10 22.6 -10.959
      vertex 10 22.6 -15
    endloop
  endfacet
  facet normal 1 0 0
    outer loop
      vertex 10 -9.67034 7
      vertex 10 -10.2732 7
      vertex 10 -14.7343 2.81072
    endloop
  endfacet
  facet normal 1 0 0
    outer loop
      vertex 10 39.7343 2.81072
      vertex 10 34.7057 3.12107
      vertex 10 34.7854 2.81072
    endloop
  endfacet
  facet normal 1 -0 0
    outer loop
      vertex 10 34.2388 4.30037
      vertex 10 39.7343 2.81072
      vertex 10 34.6703 7
    endloop
  endfacet
  facet normal 1 0 0
    outer loop
      vertex 10 39.7343 2.81072
      vertex 10 34.2388 4.30037
      vertex 10 34.7057 3.12107
    endloop
  endfacet
  facet normal 1 0 0
    outer loop
      vertex 10 34.6703 7
      vertex 10 33.6277 5.41185
      vertex 10 34.2388 4.30037
    endloop
  endfacet
  facet normal 1 0 0
    outer loop
      vertex 10 34.6703 7
      vertex 10 32.8822 6.43798
      vertex 10 33.6277 5.41185
    endloop
  endfacet
  facet normal 1 0 -0
    outer loop
      vertex 10 32.8822 6.43798
      vertex 10 34.6703 7
      vertex 10 32.3544 7
    endloop
  endfacet
  facet normal 1 -0 0
    outer loop
      vertex 10 -9.67034 7
      vertex 10 -7.68218 6.43798
      vertex 10 -7.15441 7
    endloop
  endfacet
  facet normal 1 0 0
    outer loop
      vertex 10 -9.67034 7
      vertex 10 -8.42771 5.41185
      vertex 10 -7.68218 6.43798
    endloop
  endfacet
  facet normal 1 0 0
    outer loop
      vertex 10 -9.67034 7
      vertex 10 -9.03875 4.30037
      vertex 10 -8.42771 5.41185
    endloop
  endfacet
  facet normal 1 0 0
    outer loop
      vertex 10 -14.7343 2.81072
      vertex 10 -9.03875 4.30037
      vertex 10 -9.67034 7
    endloop
  endfacet
  facet normal 1 0 0
    outer loop
      vertex 10 -9.03875 4.30037
      vertex 10 -14.7343 2.81072
      vertex 10 -9.50567 3.12107
    endloop
  endfacet
  facet normal 1 0 0
    outer loop
      vertex 10 -9.50567 3.12107
      vertex 10 -14.7343 2.81072
      vertex 10 -9.58536 2.81072
    endloop
  endfacet
  facet normal 1 0 0
    outer loop
      vertex 10 39.7343 2.81072
      vertex 10 36.6906 7
      vertex 10 36.2686 7
    endloop
  endfacet
  facet normal 1 0 0
    outer loop
      vertex 10 39.7343 2.81072
      vertex 10 37.0757 7
      vertex 10 36.6906 7
    endloop
  endfacet
  facet normal 1 0 0
    outer loop
      vertex 10 39.7343 2.81072
      vertex 10 35.8003 7
      vertex 10 35.2732 7
    endloop
  endfacet
  facet normal 0 0.728968 -0.684547
    outer loop
      vertex 10 35.2682 -10.9345
      vertex 0 36.5577 -9.56136
      vertex 10 36.5577 -9.56136
    endloop
  endfacet
  facet normal 0 0.728968 -0.684547
    outer loop
      vertex 0 36.5577 -9.56136
      vertex 10 35.2682 -10.9345
      vertex 0 35.2682 -10.9345
    endloop
  endfacet
  facet normal 9.51792e-008 0.0627905 -0.998027
    outer loop
      vertex 10 25 -15
      vertex 0 25 -15
      vertex 10 26.88 -14.8817
    endloop
  endfacet
  facet normal -1 0 0
    outer loop
      vertex 0 0 -15
      vertex 0 2.99823 -13.08
      vertex 0 4.10674 -15
    endloop
  endfacet
  facet normal -1 -0 0
    outer loop
      vertex 0 2.99823 -13.08
      vertex 0 0 -15
      vertex 0 0.0999994 -10.1
    endloop
  endfacet
  facet normal -1 0 0
    outer loop
      vertex 0 0 -15
      vertex 0 -1.16586 -10.0204
      vertex 0 0.0999994 -10.1
    endloop
  endfacet
  facet normal -1 0 0
    outer loop
      vertex 0 -1.88 -14.8817
      vertex 0 -1.16586 -10.0204
      vertex 0 0 -15
    endloop
  endfacet
  facet normal -1 0 0
    outer loop
      vertex 0 -1.88 -14.8817
      vertex 0 -2.41177 -9.78269
      vertex 0 -1.16586 -10.0204
    endloop
  endfacet
  facet normal -1 0 0
    outer loop
      vertex 0 -3.73035 -14.5287
      vertex 0 -2.41177 -9.78269
      vertex 0 -1.88 -14.8817
    endloop
  endfacet
  facet normal -1 -0 0
    outer loop
      vertex 0 -2.41177 -9.78269
      vertex 0 -3.73035 -14.5287
      vertex 0 -3.61806 -9.39074
    endloop
  endfacet
  facet normal -1 0 0
    outer loop
      vertex 0 -5.52187 -13.9466
      vertex 0 -3.61806 -9.39074
      vertex 0 -3.73035 -14.5287
    endloop
  endfacet
  facet normal -1 -0 0
    outer loop
      vertex 0 -3.61806 -9.39074
      vertex 0 -5.52187 -13.9466
      vertex 0 -4.76571 -8.8507
    endloop
  endfacet
  facet normal -1 0 0
    outer loop
      vertex 0 -7.22631 -13.1446
      vertex 0 -4.76571 -8.8507
      vertex 0 -5.52187 -13.9466
    endloop
  endfacet
  facet normal -1 -0 0
    outer loop
      vertex 0 -4.76571 -8.8507
      vertex 0 -7.22631 -13.1446
      vertex 0 -5.83663 -8.17107
    endloop
  endfacet
  facet normal -1 0 0
    outer loop
      vertex 0 -8.81678 -12.1353
      vertex 0 -5.83663 -8.17107
      vertex 0 -7.22631 -13.1446
    endloop
  endfacet
  facet normal -1 -0 0
    outer loop
      vertex 0 -5.83663 -8.17107
      vertex 0 -8.81678 -12.1353
      vertex 0 -6.81393 -7.36258
    endloop
  endfacet
  facet normal -1 0 0
    outer loop
      vertex 0 -10.2682 -10.9345
      vertex 0 -6.81393 -7.36258
      vertex 0 -8.81678 -12.1353
    endloop
  endfacet
  facet normal -1 -0 0
    outer loop
      vertex 0 -6.81393 -7.36258
      vertex 0 -10.2682 -10.9345
      vertex 0 -7.68218 -6.43798
    endloop
  endfacet
  facet normal -1 0 0
    outer loop
      vertex 0 -11.5577 -9.56136
      vertex 0 -7.68218 -6.43798
      vertex 0 -10.2682 -10.9345
    endloop
  endfacet
  facet normal -1 -0 0
    outer loop
      vertex 0 -7.68218 -6.43798
      vertex 0 -11.5577 -9.56136
      vertex 0 -8.42771 -5.41185
    endloop
  endfacet
  facet normal -1 0 0
    outer loop
      vertex 0 -12.6649 -8.0374
      vertex 0 -8.42771 -5.41185
      vertex 0 -11.5577 -9.56136
    endloop
  endfacet
  facet normal -1 -0 0
    outer loop
      vertex 0 -8.42771 -5.41185
      vertex 0 -12.6649 -8.0374
      vertex 0 -9.03875 -4.30037
    endloop
  endfacet
  facet normal -1 -0 0
    outer loop
      vertex 0 -9.03875 -4.30037
      vertex 0 -13.5724 -6.38669
      vertex 0 -9.50567 -3.12107
    endloop
  endfacet
  facet normal -1 0 0
    outer loop
      vertex 0 -13.5724 -6.38669
      vertex 0 -9.03875 -4.30037
      vertex 0 -12.6649 -8.0374
    endloop
  endfacet
  facet normal -1 0 0
    outer loop
      vertex 0 25 -15
      vertex 0 20.6377 -15
      vertex 0 21.7462 -13.08
    endloop
  endfacet
  facet normal -1 0 0
    outer loop
      vertex 0 39.7343 -2.81072
      vertex 0 35.0211 -1.89255
      vertex 0 35.1801 -0.634184
    endloop
  endfacet
  facet normal -1 0 0
    outer loop
      vertex 0 36.5577 -9.56136
      vertex 0 34.7057 -3.12107
      vertex 0 35.0211 -1.89255
    endloop
  endfacet
  facet normal -1 0 0
    outer loop
      vertex 0 36.5577 -9.56136
      vertex 0 34.2388 -4.30037
      vertex 0 34.7057 -3.12107
    endloop
  endfacet
  facet normal -1 0 0
    outer loop
      vertex 0 31.0366 -8.17107
      vertex 0 35.2682 -10.9345
      vertex 0 33.8168 -12.1353
    endloop
  endfacet
  facet normal -1 0 0
    outer loop
      vertex 0 36.5577 -9.56136
      vertex 0 33.6277 -5.41185
      vertex 0 34.2388 -4.30037
    endloop
  endfacet
  facet normal -1 0 0
    outer loop
      vertex 0 36.5577 -9.56136
      vertex 0 32.8822 -6.43798
      vertex 0 33.6277 -5.41185
    endloop
  endfacet
  facet normal -1 0 0
    outer loop
      vertex 0 29.9657 -8.8507
      vertex 0 33.8168 -12.1353
      vertex 0 32.2263 -13.1446
    endloop
  endfacet
  facet normal -1 0 0
    outer loop
      vertex 0 36.5577 -9.56136
      vertex 0 32.0139 -7.36258
      vertex 0 32.8822 -6.43798
    endloop
  endfacet
  facet normal -1 0 0
    outer loop
      vertex 0 35.2682 -10.9345
      vertex 0 31.0366 -8.17107
      vertex 0 32.0139 -7.36258
    endloop
  endfacet
  facet normal -1 0 0
    outer loop
      vertex 0 28.8181 -9.39074
      vertex 0 32.2263 -13.1446
      vertex 0 30.5219 -13.9466
    endloop
  endfacet
  facet normal -1 0 0
    outer loop
      vertex 0 33.8168 -12.1353
      vertex 0 29.9657 -8.8507
      vertex 0 31.0366 -8.17107
    endloop
  endfacet
  facet normal -1 0 0
    outer loop
      vertex 0 32.2263 -13.1446
      vertex 0 28.8181 -9.39074
      vertex 0 29.9657 -8.8507
    endloop
  endfacet
  facet normal -1 0 0
    outer loop
      vertex 0 27.6118 -9.78269
      vertex 0 30.5219 -13.9466
      vertex 0 28.7303 -14.5287
    endloop
  endfacet
  facet normal -1 0 0
    outer loop
      vertex 0 30.5219 -13.9466
      vertex 0 27.6118 -9.78269
      vertex 0 28.8181 -9.39074
    endloop
  endfacet
  facet normal -1 0 0
    outer loop
      vertex 0 26.3659 -10.0204
      vertex 0 28.7303 -14.5287
      vertex 0 26.88 -14.8817
    endloop
  endfacet
  facet normal -1 0 0
    outer loop
      vertex 0 28.7303 -14.5287
      vertex 0 26.3659 -10.0204
      vertex 0 27.6118 -9.78269
    endloop
  endfacet
  facet normal -1 0 0
    outer loop
      vertex 0 26.88 -14.8817
      vertex 0 25.1 -10.1
      vertex 0 26.3659 -10.0204
    endloop
  endfacet
  facet normal -1 0 0
    outer loop
      vertex 0 25 -15
      vertex 0 25.1 -10.1
      vertex 0 26.88 -14.8817
    endloop
  endfacet
  facet normal -1 0 0
    outer loop
      vertex 0 21.7462 -13.08
      vertex 0 25.1 -10.1
      vertex 0 25 -15
    endloop
  endfacet
  facet normal -1 0 0
    outer loop
      vertex 0 0.0999994 -10.1
      vertex 0 21.7462 -13.08
      vertex 0 2.99823 -13.08
    endloop
  endfacet
  facet normal -1 0 0
    outer loop
      vertex 0 21.7462 -13.08
      vertex 0 0.0999994 -10.1
      vertex 0 25.1 -10.1
    endloop
  endfacet
  facet normal -1 0 0
    outer loop
      vertex 0 35.1801 -0.634184
      vertex 0 39.9704 -0.941857
      vertex 0 39.7343 -2.81072
    endloop
  endfacet
  facet normal -1 0 0
    outer loop
      vertex 0 39.9704 -0.941857
      vertex 0 35.1801 -0.634184
      vertex 0 39.9704 0.941857
    endloop
  endfacet
  facet normal -1 0 0
    outer loop
      vertex 0 35.0211 -1.89255
      vertex 0 39.7343 -2.81072
      vertex 0 39.2658 -4.63525
    endloop
  endfacet
  facet normal -1 0 0
    outer loop
      vertex 0 35.1801 0.634184
      vertex 0 39.9704 0.941857
      vertex 0 35.1801 -0.634184
    endloop
  endfacet
  facet normal -1 0 0
    outer loop
      vertex 0 35.0211 -1.89255
      vertex 0 39.2658 -4.63525
      vertex 0 38.5724 -6.38669
    endloop
  endfacet
  facet normal -1 -0 0
    outer loop
      vertex 0 39.9704 0.941857
      vertex 0 35.1801 0.634184
      vertex 0 39.7343 2.81072
    endloop
  endfacet
  facet normal -1 0 0
    outer loop
      vertex 0 34.7057 3.12107
      vertex 0 39.7343 2.81072
      vertex 0 35.0211 1.89255
    endloop
  endfacet
  facet normal -1 0 0
    outer loop
      vertex 0 35.0211 -1.89255
      vertex 0 38.5724 -6.38669
      vertex 0 37.6649 -8.0374
    endloop
  endfacet
  facet normal -1 0 0
    outer loop
      vertex 0 35.0211 -1.89255
      vertex 0 37.6649 -8.0374
      vertex 0 36.5577 -9.56136
    endloop
  endfacet
  facet normal -1 0 0
    outer loop
      vertex 0 32.0139 -7.36258
      vertex 0 36.5577 -9.56136
      vertex 0 35.2682 -10.9345
    endloop
  endfacet
  facet normal -1 0 0
    outer loop
      vertex 0 35.0211 1.89255
      vertex 0 39.7343 2.81072
      vertex 0 35.1801 0.634184
    endloop
  endfacet
  facet normal -1 0 0
    outer loop
      vertex 0 39.7343 2.81072
      vertex 0 34.7057 3.12107
      vertex 0 39.2658 4.63525
    endloop
  endfacet
  facet normal -1 0 0
    outer loop
      vertex 0 34.2388 4.30037
      vertex 0 39.2658 4.63525
      vertex 0 34.7057 3.12107
    endloop
  endfacet
  facet normal -1 -0 0
    outer loop
      vertex 0 39.2658 4.63525
      vertex 0 34.2388 4.30037
      vertex 0 38.5724 6.38669
    endloop
  endfacet
  facet normal -1 -0 0
    outer loop
      vertex 0 38.5724 6.38669
      vertex 0 34.2388 4.30037
      vertex 0 38.2352 7
    endloop
  endfacet
  facet normal -1 0 0
    outer loop
      vertex 0 33.6277 5.41185
      vertex 0 38.2352 7
      vertex 0 34.2388 4.30037
    endloop
  endfacet
  facet normal -1 0 0
    outer loop
      vertex 0 32.8822 6.43798
      vertex 0 38.2352 7
      vertex 0 33.6277 5.41185
    endloop
  endfacet
  facet normal -1 -0 0
    outer loop
      vertex 0 38.2352 7
      vertex 0 32.8822 6.43798
      vertex 0 32.3544 7
    endloop
  endfacet
  facet normal -1 0 0
    outer loop
      vertex 0 -14.2658 -4.63525
      vertex 0 -9.50567 -3.12107
      vertex 0 -13.5724 -6.38669
    endloop
  endfacet
  facet normal -1 -0 0
    outer loop
      vertex 0 -9.50567 -3.12107
      vertex 0 -14.2658 -4.63525
      vertex 0 -9.8211 -1.89255
    endloop
  endfacet
  facet normal -1 0 0
    outer loop
      vertex 0 -14.7343 -2.81072
      vertex 0 -9.8211 -1.89255
      vertex 0 -14.2658 -4.63525
    endloop
  endfacet
  facet normal -1 -0 0
    outer loop
      vertex 0 -9.8211 -1.89255
      vertex 0 -14.7343 -2.81072
      vertex 0 -9.98007 -0.634184
    endloop
  endfacet
  facet normal -1 0 0
    outer loop
      vertex 0 -7.68218 6.43798
      vertex 0 -13.2352 7
      vertex 0 -7.15441 7
    endloop
  endfacet
  facet normal -1 0 0
    outer loop
      vertex 0 -8.42771 5.41185
      vertex 0 -13.2352 7
      vertex 0 -7.68218 6.43798
    endloop
  endfacet
  facet normal -1 0 0
    outer loop
      vertex 0 -9.03875 4.30037
      vertex 0 -13.2352 7
      vertex 0 -8.42771 5.41185
    endloop
  endfacet
  facet normal -1 0 0
    outer loop
      vertex 0 -13.5724 6.38669
      vertex 0 -9.03875 4.30037
      vertex 0 -9.50567 3.12107
    endloop
  endfacet
  facet normal -1 0 0
    outer loop
      vertex 0 -14.9704 -0.941857
      vertex 0 -9.98007 -0.634184
      vertex 0 -14.7343 -2.81072
    endloop
  endfacet
  facet normal -1 -0 0
    outer loop
      vertex 0 -9.98007 -0.634184
      vertex 0 -14.9704 -0.941857
      vertex 0 -9.98007 0.634184
    endloop
  endfacet
  facet normal -1 0 0
    outer loop
      vertex 0 -14.9704 0.941857
      vertex 0 -9.98007 0.634184
      vertex 0 -14.9704 -0.941857
    endloop
  endfacet
  facet normal -1 0 -0
    outer loop
      vertex 0 -13.5724 6.38669
      vertex 0 -9.50567 3.12107
      vertex 0 -14.2658 4.63525
    endloop
  endfacet
  facet normal -1 0 0
    outer loop
      vertex 0 -9.03875 4.30037
      vertex 0 -13.5724 6.38669
      vertex 0 -13.2352 7
    endloop
  endfacet
  facet normal -1 0 0
    outer loop
      vertex 0 -9.98007 0.634184
      vertex 0 -14.9704 0.941857
      vertex 0 -9.8211 1.89255
    endloop
  endfacet
  facet normal -1 -0 0
    outer loop
      vertex 0 -9.50567 3.12107
      vertex 0 -14.7343 2.81072
      vertex 0 -14.2658 4.63525
    endloop
  endfacet
  facet normal -1 0 -0
    outer loop
      vertex 0 -14.7343 2.81072
      vertex 0 -9.8211 1.89255
      vertex 0 -14.9704 0.941857
    endloop
  endfacet
  facet normal -1 0 0
    outer loop
      vertex 0 -9.8211 1.89255
      vertex 0 -14.7343 2.81072
      vertex 0 -9.50567 3.12107
    endloop
  endfacet
  facet normal 0 -0.728969 -0.684547
    outer loop
      vertex 0 -10.2682 -10.9345
      vertex 10 -11.5577 -9.56136
      vertex 0 -11.5577 -9.56136
    endloop
  endfacet
  facet normal 0 -0.728969 -0.684547
    outer loop
      vertex 10 -11.5577 -9.56136
      vertex 0 -10.2682 -10.9345
      vertex 10 -10.2682 -10.9345
    endloop
  endfacet
  facet normal 0 -0.809017 -0.587785
    outer loop
      vertex 0 -11.5577 -9.56136
      vertex 10 -12.6649 -8.0374
      vertex 0 -12.6649 -8.0374
    endloop
  endfacet
  facet normal 0 -0.809017 -0.587785
    outer loop
      vertex 10 -12.6649 -8.0374
      vertex 0 -11.5577 -9.56136
      vertex 10 -11.5577 -9.56136
    endloop
  endfacet
  facet normal 0 -0.876307 -0.481754
    outer loop
      vertex 0 -12.6649 -8.0374
      vertex 10 -13.5724 -6.38669
      vertex 0 -13.5724 -6.38669
    endloop
  endfacet
  facet normal 0 -0.876307 -0.481754
    outer loop
      vertex 10 -13.5724 -6.38669
      vertex 0 -12.6649 -8.0374
      vertex 10 -12.6649 -8.0374
    endloop
  endfacet
  facet normal 0 -0.309017 -0.951057
    outer loop
      vertex 0 -5.52187 -13.9466
      vertex 10 -3.73035 -14.5287
      vertex 10 -5.52187 -13.9466
    endloop
  endfacet
  facet normal -0 -0.309017 -0.951057
    outer loop
      vertex 10 -3.73035 -14.5287
      vertex 0 -5.52187 -13.9466
      vertex 0 -3.73035 -14.5287
    endloop
  endfacet
  facet normal 1 0 2.27646e-007
    outer loop
      vertex 10 -12.763 7
      vertex 10 -13.0757 7
      vertex 10 -14.7343 2.81072
    endloop
  endfacet
  facet normal 0 -0.929776 0.368125
    outer loop
      vertex 0 -14.2658 4.63525
      vertex 10 -13.5724 6.38669
      vertex 0 -13.5724 6.38669
    endloop
  endfacet
  facet normal 0 -0.929776 0.368125
    outer loop
      vertex 10 -13.5724 6.38669
      vertex 0 -14.2658 4.63525
      vertex 10 -14.2658 4.63525
    endloop
  endfacet
  facet normal 0 -0.992115 0.125333
    outer loop
      vertex 0 -14.9704 0.941857
      vertex 10 -14.7343 2.81072
      vertex 0 -14.7343 2.81072
    endloop
  endfacet
  facet normal 0 -0.992115 0.125333
    outer loop
      vertex 10 -14.7343 2.81072
      vertex 0 -14.9704 0.941857
      vertex 10 -14.9704 0.941857
    endloop
  endfacet
  facet normal 0 -0.968583 0.24869
    outer loop
      vertex 0 -14.7343 2.81072
      vertex 10 -14.2658 4.63525
      vertex 0 -14.2658 4.63525
    endloop
  endfacet
  facet normal 0 -0.968583 0.24869
    outer loop
      vertex 10 -14.2658 4.63525
      vertex 0 -14.7343 2.81072
      vertex 10 -14.7343 2.81072
    endloop
  endfacet
  facet normal 0 0.929776 0.368125
    outer loop
      vertex 10 39.2658 4.63525
      vertex 0 38.5724 6.38669
      vertex 10 38.5724 6.38669
    endloop
  endfacet
  facet normal 0 0.929776 0.368125
    outer loop
      vertex 0 38.5724 6.38669
      vertex 10 39.2658 4.63525
      vertex 0 39.2658 4.63525
    endloop
  endfacet
  facet normal 1 3.75572e-006 1.487e-006
    outer loop
      vertex 10 39.2658 4.63525
      vertex 10 38.5724 6.38669
      vertex 10 39.7343 2.81072
    endloop
  endfacet
  facet normal 0 0.968583 0.248689
    outer loop
      vertex 10 39.7343 2.81072
      vertex 0 39.2658 4.63525
      vertex 10 39.2658 4.63525
    endloop
  endfacet
  facet normal 0 0.968583 0.248689
    outer loop
      vertex 0 39.2658 4.63525
      vertex 10 39.7343 2.81072
      vertex 0 39.7343 2.81072
    endloop
  endfacet
  facet normal 0 0.992114 0.125335
    outer loop
      vertex 10 39.9704 0.941857
      vertex 0 39.7343 2.81072
      vertex 10 39.7343 2.81072
    endloop
  endfacet
  facet normal 0 0.992114 0.125335
    outer loop
      vertex 0 39.7343 2.81072
      vertex 10 39.9704 0.941857
      vertex 0 39.9704 0.941857
    endloop
  endfacet
  facet normal 0 0.425779 -0.904827
    outer loop
      vertex 0 30.5219 -13.9466
      vertex 10 32.2263 -13.1446
      vertex 10 30.5219 -13.9466
    endloop
  endfacet
  facet normal 0 0.425779 -0.904827
    outer loop
      vertex 10 32.2263 -13.1446
      vertex 0 30.5219 -13.9466
      vertex 0 32.2263 -13.1446
    endloop
  endfacet
  facet normal 0 0.929776 -0.368125
    outer loop
      vertex 10 38.5724 -6.38669
      vertex 0 39.2658 -4.63525
      vertex 10 39.2658 -4.63525
    endloop
  endfacet
  facet normal 0 0.929776 -0.368125
    outer loop
      vertex 0 39.2658 -4.63525
      vertex 10 38.5724 -6.38669
      vertex 0 38.5724 -6.38669
    endloop
  endfacet
  facet normal -0 -0.062791 -0.998027
    outer loop
      vertex 10 -1.88 -14.8817
      vertex 0 -1.88 -14.8817
      vertex 0 0 -15
    endloop
  endfacet
  facet normal 0 -0.187381 -0.982287
    outer loop
      vertex 0 -3.73035 -14.5287
      vertex 10 -1.88 -14.8817
      vertex 10 -3.73035 -14.5287
    endloop
  endfacet
  facet normal -0 -0.187381 -0.982287
    outer loop
      vertex 10 -1.88 -14.8817
      vertex 0 -3.73035 -14.5287
      vertex 0 -1.88 -14.8817
    endloop
  endfacet
  facet normal 0 0.309017 -0.951057
    outer loop
      vertex 0 28.7303 -14.5287
      vertex 10 30.5219 -13.9466
      vertex 10 28.7303 -14.5287
    endloop
  endfacet
  facet normal 0 0.309017 -0.951057
    outer loop
      vertex 10 30.5219 -13.9466
      vertex 0 28.7303 -14.5287
      vertex 0 30.5219 -13.9466
    endloop
  endfacet
  facet normal 0 -0.968583 -0.24869
    outer loop
      vertex 0 -14.2658 -4.63525
      vertex 10 -14.7343 -2.81072
      vertex 0 -14.7343 -2.81072
    endloop
  endfacet
  facet normal 0 -0.968583 -0.24869
    outer loop
      vertex 10 -14.7343 -2.81072
      vertex 0 -14.2658 -4.63525
      vertex 10 -14.2658 -4.63525
    endloop
  endfacet
  facet normal 0 -0.992115 -0.125333
    outer loop
      vertex 0 -14.7343 -2.81072
      vertex 10 -14.9704 -0.941857
      vertex 0 -14.9704 -0.941857
    endloop
  endfacet
  facet normal 0 -0.992115 -0.125333
    outer loop
      vertex 10 -14.9704 -0.941857
      vertex 0 -14.7343 -2.81072
      vertex 10 -14.7343 -2.81072
    endloop
  endfacet
  facet normal 1 0 0
    outer loop
      vertex 10 -11.2686 7
      vertex 10 -11.6906 7
      vertex 10 -14.7343 2.81072
    endloop
  endfacet
  facet normal 1 0 0
    outer loop
      vertex 10 -10.8003 7
      vertex 10 -11.2686 7
      vertex 10 -14.7343 2.81072
    endloop
  endfacet
  facet normal 1 0 2.27646e-007
    outer loop
      vertex 10 -12.4312 7
      vertex 10 -12.763 7
      vertex 10 -14.7343 2.81072
    endloop
  endfacet
  facet normal 1 0 0
    outer loop
      vertex 10 -11.6906 7
      vertex 10 -12.0757 7
      vertex 10 -14.7343 2.81072
    endloop
  endfacet
  facet normal 1 -3.75575e-006 1.48701e-006
    outer loop
      vertex 10 -13.5724 6.38669
      vertex 10 -14.2658 4.63525
      vertex 10 -14.7343 2.81072
    endloop
  endfacet
  facet normal 0 -0.876307 0.481754
    outer loop
      vertex 0 -13.5724 6.38669
      vertex 10 -13.2352 7
      vertex 0 -13.2352 7
    endloop
  endfacet
  facet normal 0 -0.876307 0.481754
    outer loop
      vertex 10 -13.2352 7
      vertex 0 -13.5724 6.38669
      vertex 10 -13.5724 6.38669
    endloop
  endfacet
  facet normal 0 0.876307 0.481753
    outer loop
      vertex 10 38.5724 6.38669
      vertex 0 38.2352 7
      vertex 10 38.2352 7
    endloop
  endfacet
  facet normal 0 0.876307 0.481753
    outer loop
      vertex 0 38.2352 7
      vertex 10 38.5724 6.38669
      vertex 0 38.5724 6.38669
    endloop
  endfacet
  facet normal 1 -0 0
    outer loop
      vertex 10 38.0757 7
      vertex 10 38.5724 6.38669
      vertex 10 38.2352 7
    endloop
  endfacet
  facet normal 1 5.49844e-007 4.45345e-007
    outer loop
      vertex 10 38.5724 6.38669
      vertex 10 38.0757 7
      vertex 10 39.7343 2.81072
    endloop
  endfacet
  facet normal 0 0.637425 -0.770512
    outer loop
      vertex 0 33.8168 -12.1353
      vertex 10 35.2682 -10.9345
      vertex 10 33.8168 -12.1353
    endloop
  endfacet
  facet normal 0 0.637425 -0.770512
    outer loop
      vertex 10 35.2682 -10.9345
      vertex 0 33.8168 -12.1353
      vertex 0 35.2682 -10.9345
    endloop
  endfacet
  facet normal 1 -2.68247e-006 1.70235e-006
    outer loop
      vertex 10 -12.0757 7
      vertex 10 -12.4312 7
      vertex 10 -14.7343 2.81072
    endloop
  endfacet
  facet normal 0 0.968583 -0.248689
    outer loop
      vertex 10 39.2658 -4.63525
      vertex 0 39.7343 -2.81072
      vertex 10 39.7343 -2.81072
    endloop
  endfacet
  facet normal 0 0.968583 -0.248689
    outer loop
      vertex 0 39.7343 -2.81072
      vertex 10 39.2658 -4.63525
      vertex 0 39.2658 -4.63525
    endloop
  endfacet
  facet normal 0 0.992114 -0.125335
    outer loop
      vertex 10 39.7343 -2.81072
      vertex 0 39.9704 -0.941857
      vertex 10 39.9704 -0.941857
    endloop
  endfacet
  facet normal 0 0.992114 -0.125335
    outer loop
      vertex 0 39.9704 -0.941857
      vertex 10 39.7343 -2.81072
      vertex 0 39.7343 -2.81072
    endloop
  endfacet
  facet normal 0 0.876307 -0.481753
    outer loop
      vertex 10 37.6649 -8.0374
      vertex 0 38.5724 -6.38669
      vertex 10 38.5724 -6.38669
    endloop
  endfacet
  facet normal 0 0.876307 -0.481753
    outer loop
      vertex 0 38.5724 -6.38669
      vertex 10 37.6649 -8.0374
      vertex 0 37.6649 -8.0374
    endloop
  endfacet
  facet normal 0 0.535826 -0.844328
    outer loop
      vertex 0 32.2263 -13.1446
      vertex 10 33.8168 -12.1353
      vertex 10 32.2263 -13.1446
    endloop
  endfacet
  facet normal 0 0.535826 -0.844328
    outer loop
      vertex 10 33.8168 -12.1353
      vertex 0 32.2263 -13.1446
      vertex 0 33.8168 -12.1353
    endloop
  endfacet
  facet normal 0 -0.0627904 0.998027
    outer loop
      vertex 0 26.3659 -10.0204
      vertex 10 25.1 -10.1
      vertex 10 26.3659 -10.0204
    endloop
  endfacet
  facet normal 0 -0.0627904 0.998027
    outer loop
      vertex 10 25.1 -10.1
      vertex 0 26.3659 -10.0204
      vertex 0 25.1 -10.1
    endloop
  endfacet
  facet normal 0 0.728969 -0.684547
    outer loop
      vertex 10 -7.68218 6.43798
      vertex 0 -7.15441 7
      vertex 10 -7.15441 7
    endloop
  endfacet
  facet normal 0 0.728969 -0.684547
    outer loop
      vertex 0 -7.15441 7
      vertex 10 -7.68218 6.43798
      vertex 0 -7.68218 6.43798
    endloop
  endfacet
  facet normal -0 0 1
    outer loop
      vertex 0 25.1 -10.1
      vertex 10 0.0999994 -10.1
      vertex 10 25.1 -10.1
    endloop
  endfacet
  facet normal 0 0 1
    outer loop
      vertex 10 0.0999994 -10.1
      vertex 0 25.1 -10.1
      vertex 0 0.0999994 -10.1
    endloop
  endfacet
  facet normal 0 0.876307 -0.481754
    outer loop
      vertex 10 -9.03875 4.30037
      vertex 0 -8.42771 5.41185
      vertex 10 -8.42771 5.41185
    endloop
  endfacet
  facet normal 0 0.876307 -0.481754
    outer loop
      vertex 0 -8.42771 5.41185
      vertex 10 -9.03875 4.30037
      vertex 0 -9.03875 4.30037
    endloop
  endfacet
  facet normal 0 0.992115 0.125333
    outer loop
      vertex 10 -9.8211 -1.89255
      vertex 0 -9.98007 -0.634184
      vertex 10 -9.98007 -0.634184
    endloop
  endfacet
  facet normal 0 0.992115 0.125333
    outer loop
      vertex 0 -9.98007 -0.634184
      vertex 10 -9.8211 -1.89255
      vertex 0 -9.8211 -1.89255
    endloop
  endfacet
  facet normal 0 -0.992115 0.125331
    outer loop
      vertex 0 35.0211 -1.89255
      vertex 10 35.1801 -0.634184
      vertex 0 35.1801 -0.634184
    endloop
  endfacet
  facet normal 0 -0.992115 0.125331
    outer loop
      vertex 10 35.1801 -0.634184
      vertex 0 35.0211 -1.89255
      vertex 10 35.0211 -1.89255
    endloop
  endfacet
  facet normal 0 0.929776 -0.368125
    outer loop
      vertex 10 -9.50567 3.12107
      vertex 0 -9.03875 4.30037
      vertex 10 -9.03875 4.30037
    endloop
  endfacet
  facet normal 0 0.929776 -0.368125
    outer loop
      vertex 0 -9.03875 4.30037
      vertex 10 -9.50567 3.12107
      vertex 0 -9.50567 3.12107
    endloop
  endfacet
  facet normal 0 0.809017 -0.587785
    outer loop
      vertex 10 -8.42771 5.41185
      vertex 0 -7.68218 6.43798
      vertex 10 -7.68218 6.43798
    endloop
  endfacet
  facet normal 0 0.809017 -0.587785
    outer loop
      vertex 0 -7.68218 6.43798
      vertex 10 -8.42771 5.41185
      vertex 0 -8.42771 5.41185
    endloop
  endfacet
  facet normal 0 0.968583 -0.248691
    outer loop
      vertex 10 -9.58536 2.81072
      vertex 0 -9.50567 3.12107
      vertex 10 -9.50567 3.12107
    endloop
  endfacet
  facet normal 0 0.968583 -0.24869
    outer loop
      vertex 0 -9.8211 1.89255
      vertex 10 -9.58536 2.81072
      vertex 10 -9.8211 1.89255
    endloop
  endfacet
  facet normal 4.53182e-008 0.968583 -0.24869
    outer loop
      vertex 10 -9.58536 2.81072
      vertex 0 -9.8211 1.89255
      vertex 0 -9.50567 3.12107
    endloop
  endfacet
  facet normal 0 -0.992115 -0.125331
    outer loop
      vertex 0 35.1801 0.634184
      vertex 10 35.0211 1.89255
      vertex 0 35.0211 1.89255
    endloop
  endfacet
  facet normal 0 -0.992115 -0.125331
    outer loop
      vertex 10 35.0211 1.89255
      vertex 0 35.1801 0.634184
      vertex 10 35.1801 0.634184
    endloop
  endfacet
  facet normal -0 0.0627904 0.998027
    outer loop
      vertex 0 0.0999994 -10.1
      vertex 10 -1.16586 -10.0204
      vertex 10 0.0999994 -10.1
    endloop
  endfacet
  facet normal 0 0.0627904 0.998027
    outer loop
      vertex 10 -1.16586 -10.0204
      vertex 0 0.0999994 -10.1
      vertex 0 -1.16586 -10.0204
    endloop
  endfacet
  facet normal 0 -0.637425 0.770513
    outer loop
      vertex 0 32.0139 -7.36258
      vertex 10 31.0366 -8.17107
      vertex 10 32.0139 -7.36258
    endloop
  endfacet
  facet normal 0 -0.637425 0.770513
    outer loop
      vertex 10 31.0366 -8.17107
      vertex 0 32.0139 -7.36258
      vertex 0 31.0366 -8.17107
    endloop
  endfacet
  facet normal 0 -0.187382 0.982287
    outer loop
      vertex 0 27.6118 -9.78269
      vertex 10 26.3659 -10.0204
      vertex 10 27.6118 -9.78269
    endloop
  endfacet
  facet normal 0 -0.187382 0.982287
    outer loop
      vertex 10 26.3659 -10.0204
      vertex 0 27.6118 -9.78269
      vertex 0 26.3659 -10.0204
    endloop
  endfacet
  facet normal 0 -0.929777 -0.368123
    outer loop
      vertex 0 34.7057 3.12107
      vertex 10 34.2388 4.30037
      vertex 0 34.2388 4.30037
    endloop
  endfacet
  facet normal 0 -0.929777 -0.368123
    outer loop
      vertex 10 34.2388 4.30037
      vertex 0 34.7057 3.12107
      vertex 10 34.7057 3.12107
    endloop
  endfacet
  facet normal -0 0.42578 0.904827
    outer loop
      vertex 0 -3.61806 -9.39074
      vertex 10 -4.76571 -8.8507
      vertex 10 -3.61806 -9.39074
    endloop
  endfacet
  facet normal 0 0.42578 0.904827
    outer loop
      vertex 10 -4.76571 -8.8507
      vertex 0 -3.61806 -9.39074
      vertex 0 -4.76571 -8.8507
    endloop
  endfacet
  facet normal -0 0.535827 0.844328
    outer loop
      vertex 0 -4.76571 -8.8507
      vertex 10 -5.83663 -8.17107
      vertex 10 -4.76571 -8.8507
    endloop
  endfacet
  facet normal 0 0.535827 0.844328
    outer loop
      vertex 10 -5.83663 -8.17107
      vertex 0 -4.76571 -8.8507
      vertex 0 -5.83663 -8.17107
    endloop
  endfacet
  facet normal 0 0.968583 0.24869
    outer loop
      vertex 10 -9.50567 -3.12107
      vertex 0 -9.8211 -1.89255
      vertex 10 -9.8211 -1.89255
    endloop
  endfacet
  facet normal 0 0.968583 0.24869
    outer loop
      vertex 0 -9.8211 -1.89255
      vertex 10 -9.50567 -3.12107
      vertex 0 -9.50567 -3.12107
    endloop
  endfacet
  facet normal 0 0.809017 0.587785
    outer loop
      vertex 10 -7.68218 -6.43798
      vertex 0 -8.42771 -5.41185
      vertex 10 -8.42771 -5.41185
    endloop
  endfacet
  facet normal 0 0.809017 0.587785
    outer loop
      vertex 0 -8.42771 -5.41185
      vertex 10 -7.68218 -6.43798
      vertex 0 -7.68218 -6.43798
    endloop
  endfacet
  facet normal -0 0.637424 0.770513
    outer loop
      vertex 0 -5.83663 -8.17107
      vertex 10 -6.81393 -7.36258
      vertex 10 -5.83663 -8.17107
    endloop
  endfacet
  facet normal 0 0.637424 0.770513
    outer loop
      vertex 10 -6.81393 -7.36258
      vertex 0 -5.83663 -8.17107
      vertex 0 -6.81393 -7.36258
    endloop
  endfacet
  facet normal 0 -0.728968 0.684548
    outer loop
      vertex 0 32.0139 -7.36258
      vertex 10 32.8822 -6.43798
      vertex 0 32.8822 -6.43798
    endloop
  endfacet
  facet normal 0 -0.728968 0.684548
    outer loop
      vertex 10 32.8822 -6.43798
      vertex 0 32.0139 -7.36258
      vertex 10 32.0139 -7.36258
    endloop
  endfacet
  facet normal 0 -0.968583 0.248692
    outer loop
      vertex 0 34.7057 -3.12107
      vertex 10 35.0211 -1.89255
      vertex 0 35.0211 -1.89255
    endloop
  endfacet
  facet normal 0 -0.968583 0.248692
    outer loop
      vertex 10 35.0211 -1.89255
      vertex 0 34.7057 -3.12107
      vertex 10 34.7057 -3.12107
    endloop
  endfacet
  facet normal 0 -0.876306 0.481754
    outer loop
      vertex 0 33.6277 -5.41185
      vertex 10 34.2388 -4.30037
      vertex 0 34.2388 -4.30037
    endloop
  endfacet
  facet normal 0 -0.876306 0.481754
    outer loop
      vertex 10 34.2388 -4.30037
      vertex 0 33.6277 -5.41185
      vertex 10 33.6277 -5.41185
    endloop
  endfacet
  facet normal 0 -0.535827 0.844328
    outer loop
      vertex 0 31.0366 -8.17107
      vertex 10 29.9657 -8.8507
      vertex 10 31.0366 -8.17107
    endloop
  endfacet
  facet normal 0 -0.535827 0.844328
    outer loop
      vertex 10 29.9657 -8.8507
      vertex 0 31.0366 -8.17107
      vertex 0 29.9657 -8.8507
    endloop
  endfacet
  facet normal 0 -0.42578 0.904827
    outer loop
      vertex 0 29.9657 -8.8507
      vertex 10 28.8181 -9.39074
      vertex 10 29.9657 -8.8507
    endloop
  endfacet
  facet normal 0 -0.42578 0.904827
    outer loop
      vertex 10 28.8181 -9.39074
      vertex 0 29.9657 -8.8507
      vertex 0 28.8181 -9.39074
    endloop
  endfacet
  facet normal 0 -0.309016 0.951057
    outer loop
      vertex 0 28.8181 -9.39074
      vertex 10 27.6118 -9.78269
      vertex 10 28.8181 -9.39074
    endloop
  endfacet
  facet normal 0 -0.309016 0.951057
    outer loop
      vertex 10 27.6118 -9.78269
      vertex 0 28.8181 -9.39074
      vertex 0 27.6118 -9.78269
    endloop
  endfacet
  facet normal 0 1 -0
    outer loop
      vertex 10 -9.98007 -0.634184
      vertex 0 -9.98007 0.634184
      vertex 10 -9.98007 0.634184
    endloop
  endfacet
  facet normal 0 1 0
    outer loop
      vertex 0 -9.98007 0.634184
      vertex 10 -9.98007 -0.634184
      vertex 0 -9.98007 -0.634184
    endloop
  endfacet
  facet normal 0 0.992115 -0.125333
    outer loop
      vertex 10 -9.98007 0.634184
      vertex 0 -9.8211 1.89255
      vertex 10 -9.8211 1.89255
    endloop
  endfacet
  facet normal 0 0.992115 -0.125333
    outer loop
      vertex 0 -9.8211 1.89255
      vertex 10 -9.98007 0.634184
      vertex 0 -9.98007 0.634184
    endloop
  endfacet
  facet normal 0 -0.968583 -0.248691
    outer loop
      vertex 0 34.7057 3.12107
      vertex 10 34.7854 2.81072
      vertex 10 34.7057 3.12107
    endloop
  endfacet
  facet normal -2.46869e-008 -0.968583 -0.248692
    outer loop
      vertex 0 35.0211 1.89255
      vertex 10 34.7854 2.81072
      vertex 0 34.7057 3.12107
    endloop
  endfacet
  facet normal 0 -0.968583 -0.248692
    outer loop
      vertex 10 34.7854 2.81072
      vertex 0 35.0211 1.89255
      vertex 10 35.0211 1.89255
    endloop
  endfacet
  facet normal 0 -1 0
    outer loop
      vertex 0 35.1801 -0.634184
      vertex 10 35.1801 0.634184
      vertex 0 35.1801 0.634184
    endloop
  endfacet
  facet normal 0 -1 -0
    outer loop
      vertex 10 35.1801 0.634184
      vertex 0 35.1801 -0.634184
      vertex 10 35.1801 -0.634184
    endloop
  endfacet
  facet normal -0 0.187382 0.982287
    outer loop
      vertex 0 -1.16586 -10.0204
      vertex 10 -2.41177 -9.78269
      vertex 10 -1.16586 -10.0204
    endloop
  endfacet
  facet normal 0 0.187382 0.982287
    outer loop
      vertex 10 -2.41177 -9.78269
      vertex 0 -1.16586 -10.0204
      vertex 0 -2.41177 -9.78269
    endloop
  endfacet
  facet normal -0 0.309017 0.951057
    outer loop
      vertex 0 -2.41177 -9.78269
      vertex 10 -3.61806 -9.39074
      vertex 10 -2.41177 -9.78269
    endloop
  endfacet
  facet normal 0 0.309017 0.951057
    outer loop
      vertex 10 -3.61806 -9.39074
      vertex 0 -2.41177 -9.78269
      vertex 0 -3.61806 -9.39074
    endloop
  endfacet
  facet normal 0 0.728969 0.684547
    outer loop
      vertex 10 -6.81393 -7.36258
      vertex 0 -7.68218 -6.43798
      vertex 10 -7.68218 -6.43798
    endloop
  endfacet
  facet normal 0 0.728969 0.684547
    outer loop
      vertex 0 -7.68218 -6.43798
      vertex 10 -6.81393 -7.36258
      vertex 0 -6.81393 -7.36258
    endloop
  endfacet
  facet normal 0 -0.809017 0.587786
    outer loop
      vertex 0 32.8822 -6.43798
      vertex 10 33.6277 -5.41185
      vertex 0 33.6277 -5.41185
    endloop
  endfacet
  facet normal 0 -0.809017 0.587786
    outer loop
      vertex 10 33.6277 -5.41185
      vertex 0 32.8822 -6.43798
      vertex 10 32.8822 -6.43798
    endloop
  endfacet
  facet normal 0 -0.929777 0.368123
    outer loop
      vertex 0 34.2388 -4.30037
      vertex 10 34.7057 -3.12107
      vertex 0 34.7057 -3.12107
    endloop
  endfacet
  facet normal 0 -0.929777 0.368123
    outer loop
      vertex 10 34.7057 -3.12107
      vertex 0 34.2388 -4.30037
      vertex 10 34.2388 -4.30037
    endloop
  endfacet
  facet normal 0 -0.728968 -0.684548
    outer loop
      vertex 0 32.8822 6.43798
      vertex 10 32.3544 7
      vertex 0 32.3544 7
    endloop
  endfacet
  facet normal 0 -0.728968 -0.684548
    outer loop
      vertex 10 32.3544 7
      vertex 0 32.8822 6.43798
      vertex 10 32.8822 6.43798
    endloop
  endfacet
  facet normal 0 0.876307 0.481754
    outer loop
      vertex 10 -8.42771 -5.41185
      vertex 0 -9.03875 -4.30037
      vertex 10 -9.03875 -4.30037
    endloop
  endfacet
  facet normal 0 0.876307 0.481754
    outer loop
      vertex 0 -9.03875 -4.30037
      vertex 10 -8.42771 -5.41185
      vertex 0 -8.42771 -5.41185
    endloop
  endfacet
  facet normal 0 0.929776 0.368125
    outer loop
      vertex 10 -9.03875 -4.30037
      vertex 0 -9.50567 -3.12107
      vertex 10 -9.50567 -3.12107
    endloop
  endfacet
  facet normal 0 0.929776 0.368125
    outer loop
      vertex 0 -9.50567 -3.12107
      vertex 10 -9.03875 -4.30037
      vertex 0 -9.03875 -4.30037
    endloop
  endfacet
  facet normal 0 -0.809017 -0.587786
    outer loop
      vertex 0 33.6277 5.41185
      vertex 10 32.8822 6.43798
      vertex 0 32.8822 6.43798
    endloop
  endfacet
  facet normal 0 -0.809017 -0.587786
    outer loop
      vertex 10 32.8822 6.43798
      vertex 0 33.6277 5.41185
      vertex 10 33.6277 5.41185
    endloop
  endfacet
  facet normal 0 -0.876306 -0.481754
    outer loop
      vertex 0 34.2388 4.30037
      vertex 10 33.6277 5.41185
      vertex 0 33.6277 5.41185
    endloop
  endfacet
  facet normal 0 -0.876306 -0.481754
    outer loop
      vertex 10 33.6277 5.41185
      vertex 0 34.2388 4.30037
      vertex 10 34.2388 4.30037
    endloop
  endfacet
  facet normal -0 0 1
    outer loop
      vertex 0 -7.15441 7
      vertex 10 -9.67034 7
      vertex 10 -7.15441 7
    endloop
  endfacet
  facet normal 0 0 1
    outer loop
      vertex 10 -9.67034 7
      vertex 0 -7.15441 7
      vertex 10 -10.2732 7
    endloop
  endfacet
  facet normal 0 0 1
    outer loop
      vertex 0 -13.2352 7
      vertex 10 -10.2732 7
      vertex 0 -7.15441 7
    endloop
  endfacet
  facet normal 0 0 1
    outer loop
      vertex 10 -10.2732 7
      vertex 0 -13.2352 7
      vertex 10 -10.8003 7
    endloop
  endfacet
  facet normal 0 0 1
    outer loop
      vertex 10 -10.8003 7
      vertex 0 -13.2352 7
      vertex 10 -11.2686 7
    endloop
  endfacet
  facet normal 0 0 1
    outer loop
      vertex 10 -11.2686 7
      vertex 0 -13.2352 7
      vertex 10 -11.6906 7
    endloop
  endfacet
  facet normal 0 0 1
    outer loop
      vertex 0 -13.2352 7
      vertex 10 -12.763 7
      vertex 10 -12.4312 7
    endloop
  endfacet
  facet normal 0 0 1
    outer loop
      vertex 10 -12.763 7
      vertex 0 -13.2352 7
      vertex 10 -13.0757 7
    endloop
  endfacet
  facet normal 0 0 1
    outer loop
      vertex 10 -11.6906 7
      vertex 0 -13.2352 7
      vertex 10 -12.0757 7
    endloop
  endfacet
  facet normal 0 0 1
    outer loop
      vertex 10 -12.0757 7
      vertex 0 -13.2352 7
      vertex 10 -12.4312 7
    endloop
  endfacet
  facet normal 0 0 1
    outer loop
      vertex 10 -13.0757 7
      vertex 0 -13.2352 7
      vertex 10 -13.2352 7
    endloop
  endfacet
  facet normal -0 0 1
    outer loop
      vertex 0 38.2352 7
      vertex 10 38.0757 7
      vertex 10 38.2352 7
    endloop
  endfacet
  facet normal 0 0 1
    outer loop
      vertex 10 38.0757 7
      vertex 0 38.2352 7
      vertex 10 37.763 7
    endloop
  endfacet
  facet normal 0 0 1
    outer loop
      vertex 10 37.763 7
      vertex 0 38.2352 7
      vertex 10 37.4312 7
    endloop
  endfacet
  facet normal 0 0 1
    outer loop
      vertex 0 38.2352 7
      vertex 10 36.6906 7
      vertex 10 37.0757 7
    endloop
  endfacet
  facet normal 0 0 1
    outer loop
      vertex 10 36.6906 7
      vertex 0 38.2352 7
      vertex 10 36.2686 7
    endloop
  endfacet
  facet normal 0 0 1
    outer loop
      vertex 10 36.2686 7
      vertex 0 38.2352 7
      vertex 10 35.8003 7
    endloop
  endfacet
  facet normal 0 0 1
    outer loop
      vertex 10 35.8003 7
      vertex 0 38.2352 7
      vertex 10 35.2732 7
    endloop
  endfacet
  facet normal 0 0 1
    outer loop
      vertex 0 32.3544 7
      vertex 10 35.2732 7
      vertex 0 38.2352 7
    endloop
  endfacet
  facet normal 0 0 1
    outer loop
      vertex 0 38.2352 7
      vertex 10 37.0757 7
      vertex 10 37.4312 7
    endloop
  endfacet
  facet normal 0 0 1
    outer loop
      vertex 10 35.2732 7
      vertex 0 32.3544 7
      vertex 10 34.6703 7
    endloop
  endfacet
  facet normal 0 0 1
    outer loop
      vertex 10 34.6703 7
      vertex 0 32.3544 7
      vertex 10 32.3544 7
    endloop
  endfacet
endsolid OpenSCAD_Model
