solid OpenSCAD_Model
  facet normal 0 0.707107 -0.707107
    outer loop
      vertex 5 28.5894 0.0664215
      vertex -8.5 30.4836 1.96061
      vertex 5 30.4836 1.96061
    endloop
  endfacet
  facet normal 0 0.707107 -0.707107
    outer loop
      vertex -8.5 30.4836 1.96061
      vertex 5 28.5894 0.0664215
      vertex -8.5 28.5894 0.0664215
    endloop
  endfacet
  facet normal -0 0 1
    outer loop
      vertex -8.5 28.5894 6.53358
      vertex 5 25.9106 6.53358
      vertex 5 28.5894 6.53358
    endloop
  endfacet
  facet normal 0 0 1
    outer loop
      vertex 5 25.9106 6.53358
      vertex -8.5 28.5894 6.53358
      vertex -8.5 25.9106 6.53358
    endloop
  endfacet
  facet normal 0 1 -0
    outer loop
      vertex 5 30.4836 1.96061
      vertex -8.5 30.4836 4.63939
      vertex 5 30.4836 4.63939
    endloop
  endfacet
  facet normal 0 1 0
    outer loop
      vertex -8.5 30.4836 4.63939
      vertex 5 30.4836 1.96061
      vertex -8.5 30.4836 1.96061
    endloop
  endfacet
  facet normal 0 0.707107 0.707107
    outer loop
      vertex 5 30.4836 4.63939
      vertex -8.5 28.5894 6.53358
      vertex 5 28.5894 6.53358
    endloop
  endfacet
  facet normal 0 0.707107 0.707107
    outer loop
      vertex -8.5 28.5894 6.53358
      vertex 5 30.4836 4.63939
      vertex -8.5 30.4836 4.63939
    endloop
  endfacet
  facet normal 0 -1 0
    outer loop
      vertex -8.5 24.0164 1.96061
      vertex 5 24.0164 4.63939
      vertex -8.5 24.0164 4.63939
    endloop
  endfacet
  facet normal 0 -1 -0
    outer loop
      vertex 5 24.0164 4.63939
      vertex -8.5 24.0164 1.96061
      vertex 5 24.0164 1.96061
    endloop
  endfacet
  facet normal 0 -0.707107 -0.707106
    outer loop
      vertex -8.5 25.9106 0.0664215
      vertex 5 24.0164 1.96061
      vertex -8.5 24.0164 1.96061
    endloop
  endfacet
  facet normal 0 -0.707107 -0.707106
    outer loop
      vertex 5 24.0164 1.96061
      vertex -8.5 25.9106 0.0664215
      vertex 5 25.9106 0.0664215
    endloop
  endfacet
  facet normal 0 -0.707107 0.707106
    outer loop
      vertex -8.5 24.0164 4.63939
      vertex 5 25.9106 6.53358
      vertex -8.5 25.9106 6.53358
    endloop
  endfacet
  facet normal 0 -0.707107 0.707106
    outer loop
      vertex 5 25.9106 6.53358
      vertex -8.5 24.0164 4.63939
      vertex 5 24.0164 4.63939
    endloop
  endfacet
  facet normal -1 0 0
    outer loop
      vertex -8.5 28.5894 0.0664215
      vertex -8.5 30.4836 4.63939
      vertex -8.5 30.4836 1.96061
    endloop
  endfacet
  facet normal -1 0 0
    outer loop
      vertex -8.5 28.5894 0.0664215
      vertex -8.5 28.5894 6.53358
      vertex -8.5 30.4836 4.63939
    endloop
  endfacet
  facet normal -1 0 0
    outer loop
      vertex -8.5 25.9106 0.0664215
      vertex -8.5 28.5894 6.53358
      vertex -8.5 28.5894 0.0664215
    endloop
  endfacet
  facet normal -1 0 0
    outer loop
      vertex -8.5 25.9106 0.0664215
      vertex -8.5 25.9106 6.53358
      vertex -8.5 28.5894 6.53358
    endloop
  endfacet
  facet normal -1 0 0
    outer loop
      vertex -8.5 24.0164 1.96061
      vertex -8.5 25.9106 6.53358
      vertex -8.5 25.9106 0.0664215
    endloop
  endfacet
  facet normal -1 0 0
    outer loop
      vertex -8.5 25.9106 6.53358
      vertex -8.5 24.0164 1.96061
      vertex -8.5 24.0164 4.63939
    endloop
  endfacet
  facet normal 0 0 -1
    outer loop
      vertex -8.5 25.9106 0.0664215
      vertex 5 28.5894 0.0664215
      vertex 5 25.9106 0.0664215
    endloop
  endfacet
  facet normal -0 0 -1
    outer loop
      vertex 5 28.5894 0.0664215
      vertex -8.5 25.9106 0.0664215
      vertex -8.5 28.5894 0.0664215
    endloop
  endfacet
  facet normal 1 0 0
    outer loop
      vertex 5 28.5894 6.53358
      vertex 5 30.4836 1.96061
      vertex 5 30.4836 4.63939
    endloop
  endfacet
  facet normal 1 0 0
    outer loop
      vertex 5 28.5894 6.53358
      vertex 5 28.5894 0.0664215
      vertex 5 30.4836 1.96061
    endloop
  endfacet
  facet normal 1 -0 0
    outer loop
      vertex 5 25.9106 6.53358
      vertex 5 28.5894 0.0664215
      vertex 5 28.5894 6.53358
    endloop
  endfacet
  facet normal 1 0 0
    outer loop
      vertex 5 25.9106 6.53358
      vertex 5 25.9106 0.0664215
      vertex 5 28.5894 0.0664215
    endloop
  endfacet
  facet normal 1 -0 0
    outer loop
      vertex 5 24.0164 4.63939
      vertex 5 25.9106 0.0664215
      vertex 5 25.9106 6.53358
    endloop
  endfacet
  facet normal 1 0 0
    outer loop
      vertex 5 25.9106 0.0664215
      vertex 5 24.0164 4.63939
      vertex 5 24.0164 1.96061
    endloop
  endfacet
endsolid OpenSCAD_Model
