solid OpenSCAD_Model
  facet normal 0 -0.707107 0.707107
    outer loop
      vertex -6.5 28.4351 0.585451
      vertex 5 30.4645 2.61494
      vertex -6.5 30.4645 2.61494
    endloop
  endfacet
  facet normal 0 -0.707107 0.707107
    outer loop
      vertex 5 30.4645 2.61494
      vertex -6.5 28.4351 0.585451
      vertex 5 28.4351 0.585451
    endloop
  endfacet
  facet normal 0 0.707106 -0.707107
    outer loop
      vertex -6.5 23.5354 5.48506
      vertex 5 25.5649 7.51455
      vertex 5 23.5354 5.48506
    endloop
  endfacet
  facet normal 0 0.707106 -0.707107
    outer loop
      vertex 5 25.5649 7.51455
      vertex -6.5 23.5354 5.48506
      vertex -6.5 25.5649 7.51455
    endloop
  endfacet
  facet normal 0 -0.707107 -0.707107
    outer loop
      vertex -6.5 28.4351 7.51455
      vertex 5 30.4645 5.48506
      vertex 5 28.4351 7.51455
    endloop
  endfacet
  facet normal -0 -0.707107 -0.707107
    outer loop
      vertex 5 30.4645 5.48506
      vertex -6.5 28.4351 7.51455
      vertex -6.5 30.4645 5.48506
    endloop
  endfacet
  facet normal 0 -1 0
    outer loop
      vertex -6.5 30.4645 2.61494
      vertex 5 30.4645 5.48506
      vertex -6.5 30.4645 5.48506
    endloop
  endfacet
  facet normal 0 -1 -0
    outer loop
      vertex 5 30.4645 5.48506
      vertex -6.5 30.4645 2.61494
      vertex 5 30.4645 2.61494
    endloop
  endfacet
  facet normal 0 0 -1
    outer loop
      vertex -6.5 25.5649 7.51455
      vertex 5 28.4351 7.51455
      vertex 5 25.5649 7.51455
    endloop
  endfacet
  facet normal -0 0 -1
    outer loop
      vertex 5 28.4351 7.51455
      vertex -6.5 25.5649 7.51455
      vertex -6.5 28.4351 7.51455
    endloop
  endfacet
  facet normal -0 0 1
    outer loop
      vertex -6.5 28.4351 0.585451
      vertex 5 25.5649 0.585451
      vertex 5 28.4351 0.585451
    endloop
  endfacet
  facet normal 0 0 1
    outer loop
      vertex 5 25.5649 0.585451
      vertex -6.5 28.4351 0.585451
      vertex -6.5 25.5649 0.585451
    endloop
  endfacet
  facet normal 1 0 0
    outer loop
      vertex -6.5 28.4351 7.51455
      vertex -6.5 30.4645 2.61494
      vertex -6.5 30.4645 5.48506
    endloop
  endfacet
  facet normal 1 0 0
    outer loop
      vertex -6.5 28.4351 7.51455
      vertex -6.5 28.4351 0.585451
      vertex -6.5 30.4645 2.61494
    endloop
  endfacet
  facet normal 1 -0 0
    outer loop
      vertex -6.5 25.5649 7.51455
      vertex -6.5 28.4351 0.585451
      vertex -6.5 28.4351 7.51455
    endloop
  endfacet
  facet normal 1 0 0
    outer loop
      vertex -6.5 25.5649 7.51455
      vertex -6.5 25.5649 0.585451
      vertex -6.5 28.4351 0.585451
    endloop
  endfacet
  facet normal 1 -0 0
    outer loop
      vertex -6.5 23.5354 5.48506
      vertex -6.5 25.5649 0.585451
      vertex -6.5 25.5649 7.51455
    endloop
  endfacet
  facet normal 1 0 0
    outer loop
      vertex -6.5 25.5649 0.585451
      vertex -6.5 23.5354 5.48506
      vertex -6.5 23.5354 2.61494
    endloop
  endfacet
  facet normal -0 0.707106 0.707107
    outer loop
      vertex -6.5 25.5649 0.585451
      vertex 5 23.5354 2.61494
      vertex 5 25.5649 0.585451
    endloop
  endfacet
  facet normal 0 0.707106 0.707107
    outer loop
      vertex 5 23.5354 2.61494
      vertex -6.5 25.5649 0.585451
      vertex -6.5 23.5354 2.61494
    endloop
  endfacet
  facet normal 0 1 -0
    outer loop
      vertex 5 23.5354 2.61494
      vertex -6.5 23.5354 5.48506
      vertex 5 23.5354 5.48506
    endloop
  endfacet
  facet normal 0 1 0
    outer loop
      vertex -6.5 23.5354 5.48506
      vertex 5 23.5354 2.61494
      vertex -6.5 23.5354 2.61494
    endloop
  endfacet
  facet normal -1 0 0
    outer loop
      vertex -11 22.5 -1
      vertex -11 31.5 9
      vertex -11 31.5 -1
    endloop
  endfacet
  facet normal -1 -0 0
    outer loop
      vertex -11 31.5 9
      vertex -11 22.5 -1
      vertex -11 22.5 9
    endloop
  endfacet
  facet normal -0 0 1
    outer loop
      vertex -11 31.5 9
      vertex 5 22.5 9
      vertex 5 31.5 9
    endloop
  endfacet
  facet normal 0 0 1
    outer loop
      vertex 5 22.5 9
      vertex -11 31.5 9
      vertex -11 22.5 9
    endloop
  endfacet
  facet normal 1 0 0
    outer loop
      vertex 5 31.5 9
      vertex 5 30.4645 5.48506
      vertex 5 31.5 -1
    endloop
  endfacet
  facet normal 1 0 0
    outer loop
      vertex 5 31.5 9
      vertex 5 28.4351 7.51455
      vertex 5 30.4645 5.48506
    endloop
  endfacet
  facet normal 1 0 0
    outer loop
      vertex 5 31.5 9
      vertex 5 25.5649 7.51455
      vertex 5 28.4351 7.51455
    endloop
  endfacet
  facet normal 1 0 0
    outer loop
      vertex 5 23.5354 5.48506
      vertex 5 22.5 9
      vertex 5 23.5354 2.61494
    endloop
  endfacet
  facet normal 1 0 0
    outer loop
      vertex 5 25.5649 7.51455
      vertex 5 22.5 9
      vertex 5 23.5354 5.48506
    endloop
  endfacet
  facet normal 1 -0 0
    outer loop
      vertex 5 22.5 9
      vertex 5 25.5649 7.51455
      vertex 5 31.5 9
    endloop
  endfacet
  facet normal 1 -0 0
    outer loop
      vertex 5 30.4645 2.61494
      vertex 5 31.5 -1
      vertex 5 30.4645 5.48506
    endloop
  endfacet
  facet normal 1 -0 0
    outer loop
      vertex 5 28.4351 0.585451
      vertex 5 31.5 -1
      vertex 5 30.4645 2.61494
    endloop
  endfacet
  facet normal 1 -0 0
    outer loop
      vertex 5 25.5649 0.585451
      vertex 5 31.5 -1
      vertex 5 28.4351 0.585451
    endloop
  endfacet
  facet normal 1 0 0
    outer loop
      vertex 5 25.5649 0.585451
      vertex 5 22.5 -1
      vertex 5 31.5 -1
    endloop
  endfacet
  facet normal 1 0 0
    outer loop
      vertex 5 23.5354 2.61494
      vertex 5 22.5 -1
      vertex 5 25.5649 0.585451
    endloop
  endfacet
  facet normal 1 0 0
    outer loop
      vertex 5 22.5 -1
      vertex 5 23.5354 2.61494
      vertex 5 22.5 9
    endloop
  endfacet
  facet normal 0 0 -1
    outer loop
      vertex -11 22.5 -1
      vertex 5 31.5 -1
      vertex 5 22.5 -1
    endloop
  endfacet
  facet normal -0 0 -1
    outer loop
      vertex 5 31.5 -1
      vertex -11 22.5 -1
      vertex -11 31.5 -1
    endloop
  endfacet
  facet normal 0 -1 0
    outer loop
      vertex -11 22.5 -1
      vertex 5 22.5 9
      vertex -11 22.5 9
    endloop
  endfacet
  facet normal 0 -1 -0
    outer loop
      vertex 5 22.5 9
      vertex -11 22.5 -1
      vertex 5 22.5 -1
    endloop
  endfacet
  facet normal 0 1 -0
    outer loop
      vertex 5 31.5 -1
      vertex -11 31.5 9
      vertex 5 31.5 9
    endloop
  endfacet
  facet normal 0 1 0
    outer loop
      vertex -11 31.5 9
      vertex 5 31.5 -1
      vertex -11 31.5 -1
    endloop
  endfacet
endsolid OpenSCAD_Model
