solid OpenSCAD_Model
  facet normal 0 -0.707107 0.707107
    outer loop
      vertex -6.5 28.3394 0.566422
      vertex 5 30.2336 2.46061
      vertex -6.5 30.2336 2.46061
    endloop
  endfacet
  facet normal 0 -0.707107 0.707107
    outer loop
      vertex 5 30.2336 2.46061
      vertex -6.5 28.3394 0.566422
      vertex 5 28.3394 0.566422
    endloop
  endfacet
  facet normal 0 0 -1
    outer loop
      vertex -6.5 25.6606 7.03358
      vertex 5 28.3394 7.03358
      vertex 5 25.6606 7.03358
    endloop
  endfacet
  facet normal -0 0 -1
    outer loop
      vertex 5 28.3394 7.03358
      vertex -6.5 25.6606 7.03358
      vertex -6.5 28.3394 7.03358
    endloop
  endfacet
  facet normal 0 -1 0
    outer loop
      vertex -6.5 30.2336 2.46061
      vertex 5 30.2336 5.13939
      vertex -6.5 30.2336 5.13939
    endloop
  endfacet
  facet normal 0 -1 -0
    outer loop
      vertex 5 30.2336 5.13939
      vertex -6.5 30.2336 2.46061
      vertex 5 30.2336 2.46061
    endloop
  endfacet
  facet normal 0 -0.707107 -0.707107
    outer loop
      vertex -6.5 30.2336 5.13939
      vertex 5 28.3394 7.03358
      vertex -6.5 28.3394 7.03358
    endloop
  endfacet
  facet normal 0 -0.707107 -0.707107
    outer loop
      vertex 5 28.3394 7.03358
      vertex -6.5 30.2336 5.13939
      vertex 5 30.2336 5.13939
    endloop
  endfacet
  facet normal 0 1 -0
    outer loop
      vertex 5 23.7664 2.46061
      vertex -6.5 23.7664 5.13939
      vertex 5 23.7664 5.13939
    endloop
  endfacet
  facet normal 0 1 0
    outer loop
      vertex -6.5 23.7664 5.13939
      vertex 5 23.7664 2.46061
      vertex -6.5 23.7664 2.46061
    endloop
  endfacet
  facet normal 0 0.707107 0.707106
    outer loop
      vertex 5 25.6606 0.566422
      vertex -6.5 23.7664 2.46061
      vertex 5 23.7664 2.46061
    endloop
  endfacet
  facet normal 0 0.707107 0.707106
    outer loop
      vertex -6.5 23.7664 2.46061
      vertex 5 25.6606 0.566422
      vertex -6.5 25.6606 0.566422
    endloop
  endfacet
  facet normal 0 0.707107 -0.707106
    outer loop
      vertex 5 23.7664 5.13939
      vertex -6.5 25.6606 7.03358
      vertex 5 25.6606 7.03358
    endloop
  endfacet
  facet normal 0 0.707107 -0.707106
    outer loop
      vertex -6.5 25.6606 7.03358
      vertex 5 23.7664 5.13939
      vertex -6.5 23.7664 5.13939
    endloop
  endfacet
  facet normal 1 0 0
    outer loop
      vertex -6.5 28.3394 7.03358
      vertex -6.5 30.2336 2.46061
      vertex -6.5 30.2336 5.13939
    endloop
  endfacet
  facet normal 1 0 0
    outer loop
      vertex -6.5 28.3394 7.03358
      vertex -6.5 28.3394 0.566422
      vertex -6.5 30.2336 2.46061
    endloop
  endfacet
  facet normal 1 -0 0
    outer loop
      vertex -6.5 25.6606 7.03358
      vertex -6.5 28.3394 0.566422
      vertex -6.5 28.3394 7.03358
    endloop
  endfacet
  facet normal 1 0 0
    outer loop
      vertex -6.5 25.6606 7.03358
      vertex -6.5 25.6606 0.566422
      vertex -6.5 28.3394 0.566422
    endloop
  endfacet
  facet normal 1 -0 0
    outer loop
      vertex -6.5 23.7664 5.13939
      vertex -6.5 25.6606 0.566422
      vertex -6.5 25.6606 7.03358
    endloop
  endfacet
  facet normal 1 0 0
    outer loop
      vertex -6.5 25.6606 0.566422
      vertex -6.5 23.7664 5.13939
      vertex -6.5 23.7664 2.46061
    endloop
  endfacet
  facet normal -0 0 1
    outer loop
      vertex -6.5 28.3394 0.566422
      vertex 5 25.6606 0.566422
      vertex 5 28.3394 0.566422
    endloop
  endfacet
  facet normal 0 0 1
    outer loop
      vertex 5 25.6606 0.566422
      vertex -6.5 28.3394 0.566422
      vertex -6.5 25.6606 0.566422
    endloop
  endfacet
  facet normal -1 0 0
    outer loop
      vertex -11 22.5 0
      vertex -11 31.5 8
      vertex -11 31.5 0
    endloop
  endfacet
  facet normal -1 -0 0
    outer loop
      vertex -11 31.5 8
      vertex -11 22.5 0
      vertex -11 22.5 8
    endloop
  endfacet
  facet normal -0 0 1
    outer loop
      vertex -11 31.5 8
      vertex 5 22.5 8
      vertex 5 31.5 8
    endloop
  endfacet
  facet normal 0 0 1
    outer loop
      vertex 5 22.5 8
      vertex -11 31.5 8
      vertex -11 22.5 8
    endloop
  endfacet
  facet normal 1 0 0
    outer loop
      vertex 5 31.5 8
      vertex 5 30.2336 5.13939
      vertex 5 31.5 0
    endloop
  endfacet
  facet normal 1 0 0
    outer loop
      vertex 5 31.5 8
      vertex 5 28.3394 7.03358
      vertex 5 30.2336 5.13939
    endloop
  endfacet
  facet normal 1 0 0
    outer loop
      vertex 5 31.5 8
      vertex 5 25.6606 7.03358
      vertex 5 28.3394 7.03358
    endloop
  endfacet
  facet normal 1 0 0
    outer loop
      vertex 5 22.5 0
      vertex 5 23.7664 5.13939
      vertex 5 22.5 8
    endloop
  endfacet
  facet normal 1 0 0
    outer loop
      vertex 5 25.6606 7.03358
      vertex 5 22.5 8
      vertex 5 23.7664 5.13939
    endloop
  endfacet
  facet normal 1 -0 0
    outer loop
      vertex 5 22.5 8
      vertex 5 25.6606 7.03358
      vertex 5 31.5 8
    endloop
  endfacet
  facet normal 1 -0 0
    outer loop
      vertex 5 30.2336 2.46061
      vertex 5 31.5 0
      vertex 5 30.2336 5.13939
    endloop
  endfacet
  facet normal 1 -0 0
    outer loop
      vertex 5 28.3394 0.566422
      vertex 5 31.5 0
      vertex 5 30.2336 2.46061
    endloop
  endfacet
  facet normal 1 -0 0
    outer loop
      vertex 5 25.6606 0.566422
      vertex 5 31.5 0
      vertex 5 28.3394 0.566422
    endloop
  endfacet
  facet normal 1 0 0
    outer loop
      vertex 5 25.6606 0.566422
      vertex 5 22.5 0
      vertex 5 31.5 0
    endloop
  endfacet
  facet normal 1 0 0
    outer loop
      vertex 5 23.7664 2.46061
      vertex 5 22.5 0
      vertex 5 25.6606 0.566422
    endloop
  endfacet
  facet normal 1 0 0
    outer loop
      vertex 5 23.7664 5.13939
      vertex 5 22.5 0
      vertex 5 23.7664 2.46061
    endloop
  endfacet
  facet normal 0 1 -0
    outer loop
      vertex 5 31.5 0
      vertex -11 31.5 8
      vertex 5 31.5 8
    endloop
  endfacet
  facet normal 0 1 0
    outer loop
      vertex -11 31.5 8
      vertex 5 31.5 0
      vertex -11 31.5 0
    endloop
  endfacet
  facet normal 0 0 -1
    outer loop
      vertex -11 22.5 0
      vertex 5 31.5 0
      vertex 5 22.5 0
    endloop
  endfacet
  facet normal -0 0 -1
    outer loop
      vertex 5 31.5 0
      vertex -11 22.5 0
      vertex -11 31.5 0
    endloop
  endfacet
  facet normal 0 -1 0
    outer loop
      vertex -11 22.5 0
      vertex 5 22.5 8
      vertex -11 22.5 8
    endloop
  endfacet
  facet normal 0 -1 -0
    outer loop
      vertex 5 22.5 8
      vertex -11 22.5 0
      vertex 5 22.5 0
    endloop
  endfacet
endsolid OpenSCAD_Model
