solid OpenSCAD_Model
  facet normal 0 -0.309017 -0.951057
    outer loop
      vertex 8 18.068 0.660659
      vertex 21 19.0124 0.353799
      vertex 21 18.068 0.660659
    endloop
  endfacet
  facet normal -0 -0.309017 -0.951057
    outer loop
      vertex 21 19.0124 0.353799
      vertex 8 18.068 0.660659
      vertex 8 19.0124 0.353799
    endloop
  endfacet
  facet normal 0 0.104529 -0.994522
    outer loop
      vertex 8 20 0.25
      vertex 21 20.9876 0.353799
      vertex 21 20 0.25
    endloop
  endfacet
  facet normal 0 0.104529 -0.994522
    outer loop
      vertex 21 20.9876 0.353799
      vertex 8 20 0.25
      vertex 8 20.9876 0.353799
    endloop
  endfacet
  facet normal -0 0.10453 0.994522
    outer loop
      vertex 8 20.9876 9.6462
      vertex 21 20 9.75
      vertex 21 20.9876 9.6462
    endloop
  endfacet
  facet normal 0 0.10453 0.994522
    outer loop
      vertex 21 20 9.75
      vertex 8 20.9876 9.6462
      vertex 8 20 9.75
    endloop
  endfacet
  facet normal 0 1 -0
    outer loop
      vertex 21 24.724 4.50349
      vertex 8 24.724 5.49651
      vertex 21 24.724 5.49651
    endloop
  endfacet
  facet normal 0 1 0
    outer loop
      vertex 8 24.724 5.49651
      vertex 21 24.724 4.50349
      vertex 8 24.724 4.50349
    endloop
  endfacet
  facet normal 0 -1 0
    outer loop
      vertex 8 15.276 4.50349
      vertex 21 15.276 5.49651
      vertex 8 15.276 5.49651
    endloop
  endfacet
  facet normal 0 -1 -0
    outer loop
      vertex 21 15.276 5.49651
      vertex 8 15.276 4.50349
      vertex 21 15.276 4.50349
    endloop
  endfacet
  facet normal -0 0.669132 0.743144
    outer loop
      vertex 8 23.5299 8.17837
      vertex 21 22.792 8.84283
      vertex 21 23.5299 8.17837
    endloop
  endfacet
  facet normal 0 0.669132 0.743144
    outer loop
      vertex 21 22.792 8.84283
      vertex 8 23.5299 8.17837
      vertex 8 22.792 8.84283
    endloop
  endfacet
  facet normal 0 -0.104528 -0.994522
    outer loop
      vertex 8 19.0124 0.353799
      vertex 21 20 0.25
      vertex 21 19.0124 0.353799
    endloop
  endfacet
  facet normal -0 -0.104528 -0.994522
    outer loop
      vertex 21 20 0.25
      vertex 8 19.0124 0.353799
      vertex 8 20 0.25
    endloop
  endfacet
  facet normal 0 -0.499999 0.866026
    outer loop
      vertex 8 18.068 9.33934
      vertex 21 17.208 8.84283
      vertex 21 18.068 9.33934
    endloop
  endfacet
  facet normal 0 -0.499999 0.866026
    outer loop
      vertex 21 17.208 8.84283
      vertex 8 18.068 9.33934
      vertex 8 17.208 8.84283
    endloop
  endfacet
  facet normal 3.234e-008 0.809014 -0.587789
    outer loop
      vertex 21 24.1136 2.625
      vertex 8 24.0042 2.47437
      vertex 8 24.1136 2.625
    endloop
  endfacet
  facet normal -3.37617e-008 0.809017 -0.587785
    outer loop
      vertex 8 24.0042 2.47437
      vertex 21 24.1136 2.625
      vertex 21 23.5299 1.82163
    endloop
  endfacet
  facet normal 0 0.913545 -0.406737
    outer loop
      vertex 21 24.5175 3.53217
      vertex 8 24.1894 2.79509
      vertex 8 24.5175 3.53217
    endloop
  endfacet
  facet normal 0 0.978147 0.207914
    outer loop
      vertex 21 24.724 5.49651
      vertex 8 24.5175 6.46783
      vertex 21 24.5175 6.46783
    endloop
  endfacet
  facet normal 0 0.978147 0.207914
    outer loop
      vertex 8 24.5175 6.46783
      vertex 21 24.724 5.49651
      vertex 8 24.724 5.49651
    endloop
  endfacet
  facet normal 0 -0.978148 -0.207912
    outer loop
      vertex 8 15.4825 3.53217
      vertex 21 15.276 4.50349
      vertex 8 15.276 4.50349
    endloop
  endfacet
  facet normal 0 -0.978148 -0.207912
    outer loop
      vertex 21 15.276 4.50349
      vertex 8 15.4825 3.53217
      vertex 21 15.4825 3.53217
    endloop
  endfacet
  facet normal 4.93749e-008 -0.913545 -0.406737
    outer loop
      vertex 8 15.8106 2.79509
      vertex 21 15.8864 2.625
      vertex 21 15.4825 3.53217
    endloop
  endfacet
  facet normal 2.23787e-008 -0.913544 -0.406739
    outer loop
      vertex 21 15.8864 2.625
      vertex 8 15.8106 2.79509
      vertex 8 15.8864 2.625
    endloop
  endfacet
  facet normal 0 0.309016 -0.951057
    outer loop
      vertex 8 20.9876 0.353799
      vertex 21 21.932 0.660659
      vertex 21 20.9876 0.353799
    endloop
  endfacet
  facet normal 0 0.309016 -0.951057
    outer loop
      vertex 21 21.932 0.660659
      vertex 8 20.9876 0.353799
      vertex 8 21.932 0.660659
    endloop
  endfacet
  facet normal 0 0.669132 -0.743144
    outer loop
      vertex 8 22.792 1.15717
      vertex 21 23.5299 1.82163
      vertex 21 22.792 1.15717
    endloop
  endfacet
  facet normal 0 0.669132 -0.743144
    outer loop
      vertex 21 23.5299 1.82163
      vertex 8 22.792 1.15717
      vertex 8 23.5299 1.82163
    endloop
  endfacet
  facet normal 0 0.809017 -0.587785
    outer loop
      vertex 21 23.5299 1.82163
      vertex 8 23.5299 1.82163
      vertex 8 24.0042 2.47437
    endloop
  endfacet
  facet normal 0 0.978147 -0.207914
    outer loop
      vertex 21 24.5175 3.53217
      vertex 8 24.724 4.50349
      vertex 21 24.724 4.50349
    endloop
  endfacet
  facet normal 0 0.978147 -0.207914
    outer loop
      vertex 8 24.724 4.50349
      vertex 21 24.5175 3.53217
      vertex 8 24.5175 3.53217
    endloop
  endfacet
  facet normal 9.12312e-008 0.913546 0.406735
    outer loop
      vertex 21 24.5175 6.46783
      vertex 8 24.4418 6.63793
      vertex 21 24.1136 7.375
    endloop
  endfacet
  facet normal 0 0.913549 0.40673
    outer loop
      vertex 8 24.4418 6.63793
      vertex 21 24.5175 6.46783
      vertex 8 24.5175 6.46783
    endloop
  endfacet
  facet normal -2.98381e-008 0.913545 0.406737
    outer loop
      vertex 8 24.4418 6.63793
      vertex 8 24.1136 7.375
      vertex 21 24.1136 7.375
    endloop
  endfacet
  facet normal 0 0.809019 0.587783
    outer loop
      vertex 21 23.5299 8.17837
      vertex 8 23.6394 8.02774
      vertex 8 23.5299 8.17837
    endloop
  endfacet
  facet normal -4.99018e-008 0.809017 0.587786
    outer loop
      vertex 8 23.6394 8.02774
      vertex 21 23.5299 8.17837
      vertex 21 24.1136 7.375
    endloop
  endfacet
  facet normal -4.31197e-008 0.809017 0.587786
    outer loop
      vertex 8 24.1136 7.375
      vertex 8 23.6394 8.02774
      vertex 21 24.1136 7.375
    endloop
  endfacet
  facet normal 0 -0.499999 -0.866026
    outer loop
      vertex 8 17.208 1.15717
      vertex 21 18.068 0.660659
      vertex 21 17.208 1.15717
    endloop
  endfacet
  facet normal -0 -0.499999 -0.866026
    outer loop
      vertex 21 18.068 0.660659
      vertex 8 17.208 1.15717
      vertex 8 18.068 0.660659
    endloop
  endfacet
  facet normal 0 -0.669132 -0.743144
    outer loop
      vertex 8 16.4701 1.82163
      vertex 21 17.208 1.15717
      vertex 21 16.4701 1.82163
    endloop
  endfacet
  facet normal -0 -0.669132 -0.743144
    outer loop
      vertex 21 17.208 1.15717
      vertex 8 16.4701 1.82163
      vertex 8 17.208 1.15717
    endloop
  endfacet
  facet normal 1 0 0
    outer loop
      vertex 21 21.2432 5.13066
      vertex 21 24.724 5.49651
      vertex 21 24.5175 6.46783
    endloop
  endfacet
  facet normal 1 0 0
    outer loop
      vertex 21 24.724 5.49651
      vertex 21 21.2432 5.13066
      vertex 21 24.724 4.50349
    endloop
  endfacet
  facet normal 1 0 0
    outer loop
      vertex 21 21.1888 5.38627
      vertex 21 24.5175 6.46783
      vertex 21 24.1136 7.375
    endloop
  endfacet
  facet normal 1 -0 0
    outer loop
      vertex 21 21.2432 4.86934
      vertex 21 24.724 4.50349
      vertex 21 21.2432 5.13066
    endloop
  endfacet
  facet normal 1 0 0
    outer loop
      vertex 21 21.0825 5.625
      vertex 21 24.1136 7.375
      vertex 21 23.5299 8.17837
    endloop
  endfacet
  facet normal 1 0 0
    outer loop
      vertex 21 24.724 4.50349
      vertex 21 21.2432 4.86934
      vertex 21 24.5175 3.53217
    endloop
  endfacet
  facet normal 1 0 0
    outer loop
      vertex 21 20.9289 5.83641
      vertex 21 23.5299 8.17837
      vertex 21 22.792 8.84283
    endloop
  endfacet
  facet normal 1 -0 0
    outer loop
      vertex 21 21.1888 4.61373
      vertex 21 24.5175 3.53217
      vertex 21 21.2432 4.86934
    endloop
  endfacet
  facet normal 1 0 0
    outer loop
      vertex 21 20.7347 6.01127
      vertex 21 22.792 8.84283
      vertex 21 21.932 9.33934
    endloop
  endfacet
  facet normal 1 0 0
    outer loop
      vertex 21 24.5175 3.53217
      vertex 21 21.1888 4.61373
      vertex 21 24.1136 2.625
    endloop
  endfacet
  facet normal 1 -0 0
    outer loop
      vertex 21 21.0825 4.375
      vertex 21 24.1136 2.625
      vertex 21 21.1888 4.61373
    endloop
  endfacet
  facet normal 1 0 0
    outer loop
      vertex 21 24.5175 6.46783
      vertex 21 21.1888 5.38627
      vertex 21 21.2432 5.13066
    endloop
  endfacet
  facet normal 1 0 0
    outer loop
      vertex 21 24.1136 7.375
      vertex 21 21.0825 5.625
      vertex 21 21.1888 5.38627
    endloop
  endfacet
  facet normal 1 0 0
    outer loop
      vertex 21 20.5084 6.14193
      vertex 21 21.932 9.33934
      vertex 21 20.9876 9.6462
    endloop
  endfacet
  facet normal 1 0 0
    outer loop
      vertex 21 23.5299 8.17837
      vertex 21 20.9289 5.83641
      vertex 21 21.0825 5.625
    endloop
  endfacet
  facet normal 1 0 0
    outer loop
      vertex 21 22.792 8.84283
      vertex 21 20.7347 6.01127
      vertex 21 20.9289 5.83641
    endloop
  endfacet
  facet normal 1 0 0
    outer loop
      vertex 21 21.932 9.33934
      vertex 21 20.5084 6.14193
      vertex 21 20.7347 6.01127
    endloop
  endfacet
  facet normal 1 0 0
    outer loop
      vertex 21 20.9876 9.6462
      vertex 21 20.2599 6.22268
      vertex 21 20.5084 6.14193
    endloop
  endfacet
  facet normal 1 0 0
    outer loop
      vertex 21 20 9.75
      vertex 21 20.2599 6.22268
      vertex 21 20.9876 9.6462
    endloop
  endfacet
  facet normal 1 0 0
    outer loop
      vertex 21 20 9.75
      vertex 21 20 6.25
      vertex 21 20.2599 6.22268
    endloop
  endfacet
  facet normal 1 0 0
    outer loop
      vertex 21 20 9.75
      vertex 21 19.7401 6.22268
      vertex 21 20 6.25
    endloop
  endfacet
  facet normal 1 -0 0
    outer loop
      vertex 21 19.0124 9.6462
      vertex 21 19.7401 6.22268
      vertex 21 20 9.75
    endloop
  endfacet
  facet normal 1 0 0
    outer loop
      vertex 21 19.7401 6.22268
      vertex 21 19.0124 9.6462
      vertex 21 19.4916 6.14193
    endloop
  endfacet
  facet normal 1 -0 0
    outer loop
      vertex 21 18.068 9.33934
      vertex 21 19.4916 6.14193
      vertex 21 19.0124 9.6462
    endloop
  endfacet
  facet normal 1 0 0
    outer loop
      vertex 21 19.4916 6.14193
      vertex 21 18.068 9.33934
      vertex 21 19.2653 6.01127
    endloop
  endfacet
  facet normal 1 -0 0
    outer loop
      vertex 21 17.208 8.84283
      vertex 21 19.2653 6.01127
      vertex 21 18.068 9.33934
    endloop
  endfacet
  facet normal 1 0 0
    outer loop
      vertex 21 19.2653 6.01127
      vertex 21 17.208 8.84283
      vertex 21 19.0711 5.83641
    endloop
  endfacet
  facet normal 1 -0 0
    outer loop
      vertex 21 16.4701 8.17837
      vertex 21 19.0711 5.83641
      vertex 21 17.208 8.84283
    endloop
  endfacet
  facet normal 1 -0 0
    outer loop
      vertex 21 15.8864 7.375
      vertex 21 18.9175 5.625
      vertex 21 16.4701 8.17837
    endloop
  endfacet
  facet normal 1 0 0
    outer loop
      vertex 21 19.0711 5.83641
      vertex 21 16.4701 8.17837
      vertex 21 18.9175 5.625
    endloop
  endfacet
  facet normal 1 0 0
    outer loop
      vertex 21 24.1136 2.625
      vertex 21 21.0825 4.375
      vertex 21 23.5299 1.82163
    endloop
  endfacet
  facet normal 1 -0 0
    outer loop
      vertex 21 20.9289 4.16359
      vertex 21 23.5299 1.82163
      vertex 21 21.0825 4.375
    endloop
  endfacet
  facet normal 1 0 0
    outer loop
      vertex 21 23.5299 1.82163
      vertex 21 20.9289 4.16359
      vertex 21 22.792 1.15717
    endloop
  endfacet
  facet normal 1 -0 0
    outer loop
      vertex 21 20.7347 3.98873
      vertex 21 22.792 1.15717
      vertex 21 20.9289 4.16359
    endloop
  endfacet
  facet normal 1 0 0
    outer loop
      vertex 21 22.792 1.15717
      vertex 21 20.7347 3.98873
      vertex 21 21.932 0.660659
    endloop
  endfacet
  facet normal 1 -0 0
    outer loop
      vertex 21 20.5084 3.85807
      vertex 21 21.932 0.660659
      vertex 21 20.7347 3.98873
    endloop
  endfacet
  facet normal 1 0 0
    outer loop
      vertex 21 21.932 0.660659
      vertex 21 20.5084 3.85807
      vertex 21 20.9876 0.353799
    endloop
  endfacet
  facet normal 1 -0 0
    outer loop
      vertex 21 20.2599 3.77732
      vertex 21 20.9876 0.353799
      vertex 21 20.5084 3.85807
    endloop
  endfacet
  facet normal 1 -0 0
    outer loop
      vertex 21 20 3.75
      vertex 21 20.9876 0.353799
      vertex 21 20.2599 3.77732
    endloop
  endfacet
  facet normal 1 0 0
    outer loop
      vertex 21 20 3.75
      vertex 21 20 0.25
      vertex 21 20.9876 0.353799
    endloop
  endfacet
  facet normal 1 0 0
    outer loop
      vertex 21 19.7401 3.77732
      vertex 21 20 0.25
      vertex 21 20 3.75
    endloop
  endfacet
  facet normal 1 0 0
    outer loop
      vertex 21 19.0124 0.353799
      vertex 21 19.7401 3.77732
      vertex 21 19.4916 3.85807
    endloop
  endfacet
  facet normal 1 0 0
    outer loop
      vertex 21 18.068 0.660659
      vertex 21 19.4916 3.85807
      vertex 21 19.2653 3.98873
    endloop
  endfacet
  facet normal 1 0 0
    outer loop
      vertex 21 17.208 1.15717
      vertex 21 19.2653 3.98873
      vertex 21 19.0711 4.16359
    endloop
  endfacet
  facet normal 1 0 0
    outer loop
      vertex 21 19.7401 3.77732
      vertex 21 19.0124 0.353799
      vertex 21 20 0.25
    endloop
  endfacet
  facet normal 1 0 0
    outer loop
      vertex 21 16.4701 1.82163
      vertex 21 19.0711 4.16359
      vertex 21 18.9175 4.375
    endloop
  endfacet
  facet normal 1 0 0
    outer loop
      vertex 21 15.8864 2.625
      vertex 21 18.9175 4.375
      vertex 21 18.8112 4.61373
    endloop
  endfacet
  facet normal 1 0 0
    outer loop
      vertex 21 15.4825 3.53217
      vertex 21 18.8112 4.61373
      vertex 21 18.7568 4.86934
    endloop
  endfacet
  facet normal 1 0 0
    outer loop
      vertex 21 18.9175 5.625
      vertex 21 15.8864 7.375
      vertex 21 18.8112 5.38627
    endloop
  endfacet
  facet normal 1 0 0
    outer loop
      vertex 21 19.4916 3.85807
      vertex 21 18.068 0.660659
      vertex 21 19.0124 0.353799
    endloop
  endfacet
  facet normal 1 -0 0
    outer loop
      vertex 21 15.4825 6.46783
      vertex 21 18.8112 5.38627
      vertex 21 15.8864 7.375
    endloop
  endfacet
  facet normal 1 0 0
    outer loop
      vertex 21 19.2653 3.98873
      vertex 21 17.208 1.15717
      vertex 21 18.068 0.660659
    endloop
  endfacet
  facet normal 1 0 0
    outer loop
      vertex 21 18.8112 5.38627
      vertex 21 15.4825 6.46783
      vertex 21 18.7568 5.13066
    endloop
  endfacet
  facet normal 1 0 0
    outer loop
      vertex 21 19.0711 4.16359
      vertex 21 16.4701 1.82163
      vertex 21 17.208 1.15717
    endloop
  endfacet
  facet normal 1 -0 0
    outer loop
      vertex 21 15.276 5.49651
      vertex 21 18.7568 5.13066
      vertex 21 15.4825 6.46783
    endloop
  endfacet
  facet normal 1 0 0
    outer loop
      vertex 21 18.9175 4.375
      vertex 21 15.8864 2.625
      vertex 21 16.4701 1.82163
    endloop
  endfacet
  facet normal 1 0 0
    outer loop
      vertex 21 18.7568 5.13066
      vertex 21 15.276 5.49651
      vertex 21 18.7568 4.86934
    endloop
  endfacet
  facet normal 1 0 0
    outer loop
      vertex 21 18.8112 4.61373
      vertex 21 15.4825 3.53217
      vertex 21 15.8864 2.625
    endloop
  endfacet
  facet normal 1 0 0
    outer loop
      vertex 21 15.276 4.50349
      vertex 21 18.7568 4.86934
      vertex 21 15.276 5.49651
    endloop
  endfacet
  facet normal 1 0 0
    outer loop
      vertex 21 18.7568 4.86934
      vertex 21 15.276 4.50349
      vertex 21 15.4825 3.53217
    endloop
  endfacet
  facet normal -0 0.309016 0.951057
    outer loop
      vertex 8 21.932 9.33934
      vertex 21 20.9876 9.6462
      vertex 21 21.932 9.33934
    endloop
  endfacet
  facet normal 0 0.309016 0.951057
    outer loop
      vertex 21 20.9876 9.6462
      vertex 8 21.932 9.33934
      vertex 8 20.9876 9.6462
    endloop
  endfacet
  facet normal 0 0.499999 -0.866026
    outer loop
      vertex 8 21.932 0.660659
      vertex 21 22.792 1.15717
      vertex 21 21.932 0.660659
    endloop
  endfacet
  facet normal 0 0.499999 -0.866026
    outer loop
      vertex 21 22.792 1.15717
      vertex 8 21.932 0.660659
      vertex 8 22.792 1.15717
    endloop
  endfacet
  facet normal -5.95283e-008 0.913546 -0.406736
    outer loop
      vertex 21 24.1136 2.625
      vertex 8 24.1894 2.79509
      vertex 21 24.5175 3.53217
    endloop
  endfacet
  facet normal 2.23782e-008 0.913548 -0.406731
    outer loop
      vertex 8 24.1894 2.79509
      vertex 21 24.1136 2.625
      vertex 8 24.1136 2.625
    endloop
  endfacet
  facet normal 3.23398e-008 -0.809017 -0.587786
    outer loop
      vertex 8 15.9958 2.47437
      vertex 21 15.8864 2.625
      vertex 8 15.8864 2.625
    endloop
  endfacet
  facet normal 2.55874e-008 -0.809017 -0.587785
    outer loop
      vertex 21 15.8864 2.625
      vertex 8 15.9958 2.47437
      vertex 21 16.4701 1.82163
    endloop
  endfacet
  facet normal -0 -0.809017 -0.587786
    outer loop
      vertex 21 16.4701 1.82163
      vertex 8 15.9958 2.47437
      vertex 8 16.4701 1.82163
    endloop
  endfacet
  facet normal 0 -0.809017 0.587786
    outer loop
      vertex 8 15.8864 7.375
      vertex 21 16.4701 8.17837
      vertex 8 16.4701 8.17837
    endloop
  endfacet
  facet normal 0 -0.809017 0.587786
    outer loop
      vertex 21 16.4701 8.17837
      vertex 8 15.8864 7.375
      vertex 21 15.8864 7.375
    endloop
  endfacet
  facet normal 0 -0.913545 0.406737
    outer loop
      vertex 8 15.4825 6.46783
      vertex 21 15.8864 7.375
      vertex 8 15.8864 7.375
    endloop
  endfacet
  facet normal 0 -0.913545 0.406737
    outer loop
      vertex 21 15.8864 7.375
      vertex 8 15.4825 6.46783
      vertex 21 15.4825 6.46783
    endloop
  endfacet
  facet normal -0 -0.913545 -0.406737
    outer loop
      vertex 21 15.4825 3.53217
      vertex 8 15.4825 3.53217
      vertex 8 15.8106 2.79509
    endloop
  endfacet
  facet normal 0 -0.669132 0.743144
    outer loop
      vertex 8 17.208 8.84283
      vertex 21 16.4701 8.17837
      vertex 21 17.208 8.84283
    endloop
  endfacet
  facet normal 0 -0.669132 0.743144
    outer loop
      vertex 21 16.4701 8.17837
      vertex 8 17.208 8.84283
      vertex 8 16.4701 8.17837
    endloop
  endfacet
  facet normal 0 -0.309017 0.951057
    outer loop
      vertex 8 19.0124 9.6462
      vertex 21 18.068 9.33934
      vertex 21 19.0124 9.6462
    endloop
  endfacet
  facet normal 0 -0.309017 0.951057
    outer loop
      vertex 21 18.068 9.33934
      vertex 8 19.0124 9.6462
      vertex 8 18.068 9.33934
    endloop
  endfacet
  facet normal 0 -0.104529 0.994522
    outer loop
      vertex 8 20 9.75
      vertex 21 19.0124 9.6462
      vertex 21 20 9.75
    endloop
  endfacet
  facet normal 0 -0.104529 0.994522
    outer loop
      vertex 21 19.0124 9.6462
      vertex 8 20 9.75
      vertex 8 19.0124 9.6462
    endloop
  endfacet
  facet normal -0 0.499999 0.866026
    outer loop
      vertex 8 22.792 8.84283
      vertex 21 21.932 9.33934
      vertex 21 22.792 8.84283
    endloop
  endfacet
  facet normal 0 0.499999 0.866026
    outer loop
      vertex 21 21.932 9.33934
      vertex 8 22.792 8.84283
      vertex 8 21.932 9.33934
    endloop
  endfacet
  facet normal 0 -0.978148 0.207912
    outer loop
      vertex 8 15.276 5.49651
      vertex 21 15.4825 6.46783
      vertex 8 15.4825 6.46783
    endloop
  endfacet
  facet normal 0 -0.978148 0.207912
    outer loop
      vertex 21 15.4825 6.46783
      vertex 8 15.276 5.49651
      vertex 21 15.276 5.49651
    endloop
  endfacet
  facet normal 0 0.104528 -0.994522
    outer loop
      vertex 8 5 0
      vertex 20 5.62373 0.0655565
      vertex 20 5 0
    endloop
  endfacet
  facet normal 0 0.104528 -0.994522
    outer loop
      vertex 20 5.62373 0.0655565
      vertex 8 5 0
      vertex 8 5.62373 0.0655565
    endloop
  endfacet
  facet normal -0 0.104529 0.994522
    outer loop
      vertex 8 5.62373 5.93444
      vertex 20 5 6
      vertex 20 5.62373 5.93444
    endloop
  endfacet
  facet normal 0 0.104529 0.994522
    outer loop
      vertex 20 5 6
      vertex 8 5.62373 5.93444
      vertex 8 5 6
    endloop
  endfacet
  facet normal -4.67129e-008 0.809017 0.587785
    outer loop
      vertex 8 7.59808 4.5
      vertex 8 7.30316 4.90591
      vertex 20 7.59808 4.5
    endloop
  endfacet
  facet normal 0 -0.104527 -0.994522
    outer loop
      vertex 8 4.37626 0.0655565
      vertex 20 5 0
      vertex 20 4.37626 0.0655565
    endloop
  endfacet
  facet normal -0 -0.104527 -0.994522
    outer loop
      vertex 20 5 0
      vertex 8 4.37626 0.0655565
      vertex 8 5 0
    endloop
  endfacet
  facet normal 0 -0.5 0.866026
    outer loop
      vertex 8 3.77979 5.74064
      vertex 20 3.23664 5.42705
      vertex 20 3.77979 5.74064
    endloop
  endfacet
  facet normal 0 -0.5 0.866026
    outer loop
      vertex 20 3.23664 5.42705
      vertex 8 3.77979 5.74064
      vertex 8 3.23664 5.42705
    endloop
  endfacet
  facet normal 0 -0.5 -0.866026
    outer loop
      vertex 8 3.23664 0.572948
      vertex 20 3.77979 0.259363
      vertex 20 3.23664 0.572948
    endloop
  endfacet
  facet normal -0 -0.5 -0.866026
    outer loop
      vertex 20 3.77979 0.259363
      vertex 8 3.23664 0.572948
      vertex 8 3.77979 0.259363
    endloop
  endfacet
  facet normal 0 0.913545 -0.406737
    outer loop
      vertex 20 7.85317 2.07295
      vertex 8 7.64909 1.61459
      vertex 8 7.85317 2.07295
    endloop
  endfacet
  facet normal 2.42434e-008 0.913545 -0.406737
    outer loop
      vertex 20 7.59808 1.5
      vertex 8 7.64909 1.61459
      vertex 20 7.85317 2.07295
    endloop
  endfacet
  facet normal 2.42434e-008 0.913545 -0.406737
    outer loop
      vertex 8 7.64909 1.61459
      vertex 20 7.59808 1.5
      vertex 8 7.59808 1.5
    endloop
  endfacet
  facet normal 0 0.978148 0.207911
    outer loop
      vertex 20 7.98357 3.31359
      vertex 8 7.85317 3.92705
      vertex 20 7.85317 3.92705
    endloop
  endfacet
  facet normal 0 0.978148 0.207911
    outer loop
      vertex 8 7.85317 3.92705
      vertex 20 7.98357 3.31359
      vertex 8 7.98357 3.31359
    endloop
  endfacet
  facet normal 0 -1 0
    outer loop
      vertex 8 2.01643 2.68641
      vertex 20 2.01643 3.31359
      vertex 8 2.01643 3.31359
    endloop
  endfacet
  facet normal 0 -1 -0
    outer loop
      vertex 20 2.01643 3.31359
      vertex 8 2.01643 2.68641
      vertex 20 2.01643 2.68641
    endloop
  endfacet
  facet normal 0 -0.978148 -0.207911
    outer loop
      vertex 8 2.14683 2.07295
      vertex 20 2.01643 2.68641
      vertex 8 2.01643 2.68641
    endloop
  endfacet
  facet normal 0 -0.978148 -0.207911
    outer loop
      vertex 20 2.01643 2.68641
      vertex 8 2.14683 2.07295
      vertex 20 2.14683 2.07295
    endloop
  endfacet
  facet normal 2.42434e-008 -0.913545 -0.406737
    outer loop
      vertex 8 2.3509 1.61459
      vertex 20 2.40192 1.5
      vertex 20 2.14683 2.07295
    endloop
  endfacet
  facet normal 2.42434e-008 -0.913545 -0.406737
    outer loop
      vertex 20 2.40192 1.5
      vertex 8 2.3509 1.61459
      vertex 8 2.40192 1.5
    endloop
  endfacet
  facet normal 0 0.669131 -0.743144
    outer loop
      vertex 8 6.76336 0.572948
      vertex 20 7.22943 0.992608
      vertex 20 6.76336 0.572948
    endloop
  endfacet
  facet normal 0 0.669131 -0.743144
    outer loop
      vertex 20 7.22943 0.992608
      vertex 8 6.76336 0.572948
      vertex 8 7.22943 0.992608
    endloop
  endfacet
  facet normal 0 0.309017 -0.951056
    outer loop
      vertex 8 5.62373 0.0655565
      vertex 20 6.22021 0.259363
      vertex 20 5.62373 0.0655565
    endloop
  endfacet
  facet normal 0 0.309017 -0.951056
    outer loop
      vertex 20 6.22021 0.259363
      vertex 8 5.62373 0.0655565
      vertex 8 6.22021 0.259363
    endloop
  endfacet
  facet normal 3.50348e-008 0.809016 -0.587786
    outer loop
      vertex 20 7.59808 1.5
      vertex 8 7.52435 1.39852
      vertex 8 7.59808 1.5
    endloop
  endfacet
  facet normal 2.56792e-008 0.809017 -0.587785
    outer loop
      vertex 8 7.52435 1.39852
      vertex 20 7.59808 1.5
      vertex 20 7.22943 0.992608
    endloop
  endfacet
  facet normal 0 0.978148 -0.207911
    outer loop
      vertex 20 7.85317 2.07295
      vertex 8 7.98357 2.68641
      vertex 20 7.98357 2.68641
    endloop
  endfacet
  facet normal 0 0.978148 -0.207911
    outer loop
      vertex 8 7.98357 2.68641
      vertex 20 7.85317 2.07295
      vertex 8 7.85317 2.07295
    endloop
  endfacet
  facet normal -3.23246e-008 0.913545 0.406737
    outer loop
      vertex 8 7.80215 4.04164
      vertex 8 7.59808 4.5
      vertex 20 7.59808 4.5
    endloop
  endfacet
  facet normal -6.46491e-009 0.913545 0.406737
    outer loop
      vertex 20 7.85317 3.92705
      vertex 8 7.80215 4.04164
      vertex 20 7.59808 4.5
    endloop
  endfacet
  facet normal 0 0.913545 0.406737
    outer loop
      vertex 8 7.80215 4.04164
      vertex 20 7.85317 3.92705
      vertex 8 7.85317 3.92705
    endloop
  endfacet
  facet normal 0 0.809015 0.587787
    outer loop
      vertex 20 7.22943 5.00739
      vertex 8 7.30316 4.90591
      vertex 8 7.22943 5.00739
    endloop
  endfacet
  facet normal 1.75303e-008 0.809016 0.587786
    outer loop
      vertex 8 7.30316 4.90591
      vertex 20 7.22943 5.00739
      vertex 20 7.59808 4.5
    endloop
  endfacet
  facet normal -0 0.5 0.866026
    outer loop
      vertex 8 6.76336 5.42705
      vertex 20 6.22021 5.74064
      vertex 20 6.76336 5.42705
    endloop
  endfacet
  facet normal 0 0.5 0.866026
    outer loop
      vertex 20 6.22021 5.74064
      vertex 8 6.76336 5.42705
      vertex 8 6.22021 5.74064
    endloop
  endfacet
  facet normal -0 0.669131 0.743144
    outer loop
      vertex 8 7.22943 5.00739
      vertex 20 6.76336 5.42705
      vertex 20 7.22943 5.00739
    endloop
  endfacet
  facet normal 0 0.669131 0.743144
    outer loop
      vertex 20 6.76336 5.42705
      vertex 8 7.22943 5.00739
      vertex 8 6.76336 5.42705
    endloop
  endfacet
  facet normal -0 0.309017 0.951056
    outer loop
      vertex 8 6.22021 5.74064
      vertex 20 5.62373 5.93444
      vertex 20 6.22021 5.74064
    endloop
  endfacet
  facet normal 0 0.309017 0.951056
    outer loop
      vertex 20 5.62373 5.93444
      vertex 8 6.22021 5.74064
      vertex 8 5.62373 5.93444
    endloop
  endfacet
  facet normal -0 -0.809016 -0.587786
    outer loop
      vertex 20 2.77057 0.992608
      vertex 8 2.47565 1.39852
      vertex 8 2.77057 0.992608
    endloop
  endfacet
  facet normal 3.50347e-008 -0.809017 -0.587785
    outer loop
      vertex 8 2.47565 1.39852
      vertex 20 2.40192 1.5
      vertex 8 2.40192 1.5
    endloop
  endfacet
  facet normal 4.1753e-008 -0.809017 -0.587785
    outer loop
      vertex 20 2.40192 1.5
      vertex 8 2.47565 1.39852
      vertex 20 2.77057 0.992608
    endloop
  endfacet
  facet normal 0 -0.309017 -0.951056
    outer loop
      vertex 8 3.77979 0.259363
      vertex 20 4.37626 0.0655565
      vertex 20 3.77979 0.259363
    endloop
  endfacet
  facet normal -0 -0.309017 -0.951056
    outer loop
      vertex 20 4.37626 0.0655565
      vertex 8 3.77979 0.259363
      vertex 8 4.37626 0.0655565
    endloop
  endfacet
  facet normal 0 -0.978148 0.207911
    outer loop
      vertex 8 2.01643 3.31359
      vertex 20 2.14683 3.92705
      vertex 8 2.14683 3.92705
    endloop
  endfacet
  facet normal 0 -0.978148 0.207911
    outer loop
      vertex 20 2.14683 3.92705
      vertex 8 2.01643 3.31359
      vertex 20 2.01643 3.31359
    endloop
  endfacet
  facet normal 1 0 0
    outer loop
      vertex 20 6.24315 3.13066
      vertex 20 7.98357 3.31359
      vertex 20 7.85317 3.92705
    endloop
  endfacet
  facet normal 1 0 0
    outer loop
      vertex 20 7.98357 3.31359
      vertex 20 6.24315 3.13066
      vertex 20 7.98357 2.68641
    endloop
  endfacet
  facet normal 1 0 0
    outer loop
      vertex 20 6.18882 3.38627
      vertex 20 7.85317 3.92705
      vertex 20 7.59808 4.5
    endloop
  endfacet
  facet normal 1 -0 0
    outer loop
      vertex 20 6.24315 2.86934
      vertex 20 7.98357 2.68641
      vertex 20 6.24315 3.13066
    endloop
  endfacet
  facet normal 1 0 0
    outer loop
      vertex 20 6.08253 3.625
      vertex 20 7.59808 4.5
      vertex 20 7.22943 5.00739
    endloop
  endfacet
  facet normal 1 0 0
    outer loop
      vertex 20 7.98357 2.68641
      vertex 20 6.24315 2.86934
      vertex 20 7.85317 2.07295
    endloop
  endfacet
  facet normal 1 0 0
    outer loop
      vertex 20 5.92893 3.83641
      vertex 20 7.22943 5.00739
      vertex 20 6.76336 5.42705
    endloop
  endfacet
  facet normal 1 -0 0
    outer loop
      vertex 20 6.18882 2.61373
      vertex 20 7.85317 2.07295
      vertex 20 6.24315 2.86934
    endloop
  endfacet
  facet normal 1 0 0
    outer loop
      vertex 20 7.85317 2.07295
      vertex 20 6.18882 2.61373
      vertex 20 7.59808 1.5
    endloop
  endfacet
  facet normal 1 0 0
    outer loop
      vertex 20 5.73473 4.01127
      vertex 20 6.76336 5.42705
      vertex 20 6.22021 5.74064
    endloop
  endfacet
  facet normal 1 0 0
    outer loop
      vertex 20 7.85317 3.92705
      vertex 20 6.18882 3.38627
      vertex 20 6.24315 3.13066
    endloop
  endfacet
  facet normal 1 0 0
    outer loop
      vertex 20 7.59808 4.5
      vertex 20 6.08253 3.625
      vertex 20 6.18882 3.38627
    endloop
  endfacet
  facet normal 1 0 0
    outer loop
      vertex 20 7.22943 5.00739
      vertex 20 5.92893 3.83641
      vertex 20 6.08253 3.625
    endloop
  endfacet
  facet normal 1 0 0
    outer loop
      vertex 20 6.76336 5.42705
      vertex 20 5.73473 4.01127
      vertex 20 5.92893 3.83641
    endloop
  endfacet
  facet normal 1 0 0
    outer loop
      vertex 20 5.50842 4.14193
      vertex 20 6.22021 5.74064
      vertex 20 5.62373 5.93444
    endloop
  endfacet
  facet normal 1 0 0
    outer loop
      vertex 20 6.22021 5.74064
      vertex 20 5.50842 4.14193
      vertex 20 5.73473 4.01127
    endloop
  endfacet
  facet normal 1 0 0
    outer loop
      vertex 20 5.62373 5.93444
      vertex 20 5.25989 4.22268
      vertex 20 5.50842 4.14193
    endloop
  endfacet
  facet normal 1 0 0
    outer loop
      vertex 20 5 6
      vertex 20 5.25989 4.22268
      vertex 20 5.62373 5.93444
    endloop
  endfacet
  facet normal 1 0 0
    outer loop
      vertex 20 5 6
      vertex 20 5 4.25
      vertex 20 5.25989 4.22268
    endloop
  endfacet
  facet normal 1 0 0
    outer loop
      vertex 20 5 6
      vertex 20 4.74011 4.22268
      vertex 20 5 4.25
    endloop
  endfacet
  facet normal 1 -0 0
    outer loop
      vertex 20 4.37626 5.93444
      vertex 20 4.74011 4.22268
      vertex 20 5 6
    endloop
  endfacet
  facet normal 1 0 0
    outer loop
      vertex 20 4.74011 4.22268
      vertex 20 4.37626 5.93444
      vertex 20 4.49158 4.14193
    endloop
  endfacet
  facet normal 1 -0 0
    outer loop
      vertex 20 3.77979 5.74064
      vertex 20 4.49158 4.14193
      vertex 20 4.37626 5.93444
    endloop
  endfacet
  facet normal 1 0 0
    outer loop
      vertex 20 4.49158 4.14193
      vertex 20 3.77979 5.74064
      vertex 20 4.26527 4.01127
    endloop
  endfacet
  facet normal 1 -0 0
    outer loop
      vertex 20 3.23664 5.42705
      vertex 20 4.26527 4.01127
      vertex 20 3.77979 5.74064
    endloop
  endfacet
  facet normal 1 0 0
    outer loop
      vertex 20 4.26527 4.01127
      vertex 20 3.23664 5.42705
      vertex 20 4.07107 3.83641
    endloop
  endfacet
  facet normal 1 -0 0
    outer loop
      vertex 20 2.77057 5.00739
      vertex 20 4.07107 3.83641
      vertex 20 3.23664 5.42705
    endloop
  endfacet
  facet normal 1 0 0
    outer loop
      vertex 20 4.07107 3.83641
      vertex 20 2.77057 5.00739
      vertex 20 3.91747 3.625
    endloop
  endfacet
  facet normal 1 0 0
    outer loop
      vertex 20 3.91747 3.625
      vertex 20 2.40192 4.5
      vertex 20 3.81118 3.38627
    endloop
  endfacet
  facet normal 1 -0 0
    outer loop
      vertex 20 2.40192 4.5
      vertex 20 3.91747 3.625
      vertex 20 2.77057 5.00739
    endloop
  endfacet
  facet normal 1 -0 0
    outer loop
      vertex 20 6.08253 2.375
      vertex 20 7.59808 1.5
      vertex 20 6.18882 2.61373
    endloop
  endfacet
  facet normal 1 0 0
    outer loop
      vertex 20 7.59808 1.5
      vertex 20 6.08253 2.375
      vertex 20 7.22943 0.992608
    endloop
  endfacet
  facet normal 1 -0 0
    outer loop
      vertex 20 5.92893 2.16359
      vertex 20 7.22943 0.992608
      vertex 20 6.08253 2.375
    endloop
  endfacet
  facet normal 1 0 0
    outer loop
      vertex 20 7.22943 0.992608
      vertex 20 5.92893 2.16359
      vertex 20 6.76336 0.572948
    endloop
  endfacet
  facet normal 1 -0 0
    outer loop
      vertex 20 5.73473 1.98873
      vertex 20 6.76336 0.572948
      vertex 20 5.92893 2.16359
    endloop
  endfacet
  facet normal 1 0 0
    outer loop
      vertex 20 6.76336 0.572948
      vertex 20 5.73473 1.98873
      vertex 20 6.22021 0.259363
    endloop
  endfacet
  facet normal 1 -0 0
    outer loop
      vertex 20 5.50842 1.85807
      vertex 20 6.22021 0.259363
      vertex 20 5.73473 1.98873
    endloop
  endfacet
  facet normal 1 0 0
    outer loop
      vertex 20 6.22021 0.259363
      vertex 20 5.50842 1.85807
      vertex 20 5.62373 0.0655565
    endloop
  endfacet
  facet normal 1 -0 0
    outer loop
      vertex 20 5.25989 1.77732
      vertex 20 5.62373 0.0655565
      vertex 20 5.50842 1.85807
    endloop
  endfacet
  facet normal 1 -0 0
    outer loop
      vertex 20 5 1.75
      vertex 20 5.62373 0.0655565
      vertex 20 5.25989 1.77732
    endloop
  endfacet
  facet normal 1 0 0
    outer loop
      vertex 20 5 1.75
      vertex 20 5 0
      vertex 20 5.62373 0.0655565
    endloop
  endfacet
  facet normal 1 0 0
    outer loop
      vertex 20 4.74011 1.77732
      vertex 20 5 0
      vertex 20 5 1.75
    endloop
  endfacet
  facet normal 1 0 0
    outer loop
      vertex 20 4.37626 0.0655565
      vertex 20 4.74011 1.77732
      vertex 20 4.49158 1.85807
    endloop
  endfacet
  facet normal 1 0 0
    outer loop
      vertex 20 4.74011 1.77732
      vertex 20 4.37626 0.0655565
      vertex 20 5 0
    endloop
  endfacet
  facet normal 1 0 0
    outer loop
      vertex 20 3.77979 0.259363
      vertex 20 4.49158 1.85807
      vertex 20 4.26527 1.98873
    endloop
  endfacet
  facet normal 1 0 0
    outer loop
      vertex 20 3.23664 0.572948
      vertex 20 4.26527 1.98873
      vertex 20 4.07107 2.16359
    endloop
  endfacet
  facet normal 1 0 0
    outer loop
      vertex 20 2.77057 0.992608
      vertex 20 4.07107 2.16359
      vertex 20 3.91747 2.375
    endloop
  endfacet
  facet normal 1 0 0
    outer loop
      vertex 20 2.40192 1.5
      vertex 20 3.91747 2.375
      vertex 20 3.81118 2.61373
    endloop
  endfacet
  facet normal 1 0 0
    outer loop
      vertex 20 4.49158 1.85807
      vertex 20 3.77979 0.259363
      vertex 20 4.37626 0.0655565
    endloop
  endfacet
  facet normal 1 0 0
    outer loop
      vertex 20 2.14683 2.07295
      vertex 20 3.81118 2.61373
      vertex 20 3.75685 2.86934
    endloop
  endfacet
  facet normal 1 -0 0
    outer loop
      vertex 20 2.14683 3.92705
      vertex 20 3.81118 3.38627
      vertex 20 2.40192 4.5
    endloop
  endfacet
  facet normal 1 0 0
    outer loop
      vertex 20 4.26527 1.98873
      vertex 20 3.23664 0.572948
      vertex 20 3.77979 0.259363
    endloop
  endfacet
  facet normal 1 0 0
    outer loop
      vertex 20 3.81118 3.38627
      vertex 20 2.14683 3.92705
      vertex 20 3.75685 3.13066
    endloop
  endfacet
  facet normal 1 0 0
    outer loop
      vertex 20 4.07107 2.16359
      vertex 20 2.77057 0.992608
      vertex 20 3.23664 0.572948
    endloop
  endfacet
  facet normal 1 -0 0
    outer loop
      vertex 20 2.01643 3.31359
      vertex 20 3.75685 3.13066
      vertex 20 2.14683 3.92705
    endloop
  endfacet
  facet normal 1 0 0
    outer loop
      vertex 20 3.91747 2.375
      vertex 20 2.40192 1.5
      vertex 20 2.77057 0.992608
    endloop
  endfacet
  facet normal 1 0 0
    outer loop
      vertex 20 3.75685 3.13066
      vertex 20 2.01643 3.31359
      vertex 20 3.75685 2.86934
    endloop
  endfacet
  facet normal 1 0 0
    outer loop
      vertex 20 3.81118 2.61373
      vertex 20 2.14683 2.07295
      vertex 20 2.40192 1.5
    endloop
  endfacet
  facet normal 1 0 0
    outer loop
      vertex 20 2.01643 2.68641
      vertex 20 3.75685 2.86934
      vertex 20 2.01643 3.31359
    endloop
  endfacet
  facet normal 1 0 0
    outer loop
      vertex 20 3.75685 2.86934
      vertex 20 2.01643 2.68641
      vertex 20 2.14683 2.07295
    endloop
  endfacet
  facet normal -0 -0.913545 -0.406737
    outer loop
      vertex 20 2.14683 2.07295
      vertex 8 2.14683 2.07295
      vertex 8 2.3509 1.61459
    endloop
  endfacet
  facet normal 0 0.5 -0.866026
    outer loop
      vertex 8 6.22021 0.259363
      vertex 20 6.76336 0.572948
      vertex 20 6.22021 0.259363
    endloop
  endfacet
  facet normal 0 0.5 -0.866026
    outer loop
      vertex 20 6.76336 0.572948
      vertex 8 6.22021 0.259363
      vertex 8 6.76336 0.572948
    endloop
  endfacet
  facet normal 0 0.809017 -0.587786
    outer loop
      vertex 20 7.22943 0.992608
      vertex 8 7.22943 0.992608
      vertex 8 7.52435 1.39852
    endloop
  endfacet
  facet normal 0 1 -0
    outer loop
      vertex 20 7.98357 2.68641
      vertex 8 7.98357 3.31359
      vertex 20 7.98357 3.31359
    endloop
  endfacet
  facet normal 0 1 0
    outer loop
      vertex 8 7.98357 3.31359
      vertex 20 7.98357 2.68641
      vertex 8 7.98357 2.68641
    endloop
  endfacet
  facet normal 0 -0.669131 0.743144
    outer loop
      vertex 8 3.23664 5.42705
      vertex 20 2.77057 5.00739
      vertex 20 3.23664 5.42705
    endloop
  endfacet
  facet normal 0 -0.669131 0.743144
    outer loop
      vertex 20 2.77057 5.00739
      vertex 8 3.23664 5.42705
      vertex 8 2.77057 5.00739
    endloop
  endfacet
  facet normal 0 -0.309017 0.951056
    outer loop
      vertex 8 4.37626 5.93444
      vertex 20 3.77979 5.74064
      vertex 20 4.37626 5.93444
    endloop
  endfacet
  facet normal 0 -0.309017 0.951056
    outer loop
      vertex 20 3.77979 5.74064
      vertex 8 4.37626 5.93444
      vertex 8 3.77979 5.74064
    endloop
  endfacet
  facet normal 0 -0.104529 0.994522
    outer loop
      vertex 8 5 6
      vertex 20 4.37626 5.93444
      vertex 20 5 6
    endloop
  endfacet
  facet normal 0 -0.104529 0.994522
    outer loop
      vertex 20 4.37626 5.93444
      vertex 8 5 6
      vertex 8 4.37626 5.93444
    endloop
  endfacet
  facet normal 0 -0.669131 -0.743144
    outer loop
      vertex 8 2.77057 0.992608
      vertex 20 3.23664 0.572948
      vertex 20 2.77057 0.992608
    endloop
  endfacet
  facet normal -0 -0.669131 -0.743144
    outer loop
      vertex 20 3.23664 0.572948
      vertex 8 2.77057 0.992608
      vertex 8 3.23664 0.572948
    endloop
  endfacet
  facet normal 0 -0.809016 0.587786
    outer loop
      vertex 8 2.40192 4.5
      vertex 20 2.77057 5.00739
      vertex 8 2.77057 5.00739
    endloop
  endfacet
  facet normal 0 -0.809016 0.587786
    outer loop
      vertex 20 2.77057 5.00739
      vertex 8 2.40192 4.5
      vertex 20 2.40192 4.5
    endloop
  endfacet
  facet normal 0 -0.913545 0.406737
    outer loop
      vertex 8 2.14683 3.92705
      vertex 20 2.40192 4.5
      vertex 8 2.40192 4.5
    endloop
  endfacet
  facet normal 0 -0.913545 0.406737
    outer loop
      vertex 20 2.40192 4.5
      vertex 8 2.14683 3.92705
      vertex 20 2.14683 3.92705
    endloop
  endfacet
  facet normal -1 0 0
    outer loop
      vertex 0 27 0
      vertex 0 21.2432 4.86934
      vertex 0 27 10
    endloop
  endfacet
  facet normal -1 0 0
    outer loop
      vertex 0 27 0
      vertex 0 21.1888 4.61373
      vertex 0 21.2432 4.86934
    endloop
  endfacet
  facet normal -1 0 0
    outer loop
      vertex 0 27 0
      vertex 0 21.0825 4.375
      vertex 0 21.1888 4.61373
    endloop
  endfacet
  facet normal -1 0 0
    outer loop
      vertex 0 27 0
      vertex 0 20.9289 4.16359
      vertex 0 21.0825 4.375
    endloop
  endfacet
  facet normal -1 0 0
    outer loop
      vertex 0 27 0
      vertex 0 20.7347 3.98873
      vertex 0 20.9289 4.16359
    endloop
  endfacet
  facet normal -1 0 0
    outer loop
      vertex 0 27 0
      vertex 0 20.5084 3.85807
      vertex 0 20.7347 3.98873
    endloop
  endfacet
  facet normal -1 0 0
    outer loop
      vertex 0 27 0
      vertex 0 20.2599 3.77732
      vertex 0 20.5084 3.85807
    endloop
  endfacet
  facet normal -1 0 0
    outer loop
      vertex 0 27 0
      vertex 0 20 3.75
      vertex 0 20.2599 3.77732
    endloop
  endfacet
  facet normal -1 0 0
    outer loop
      vertex 0 27 0
      vertex 0 19.7401 3.77732
      vertex 0 20 3.75
    endloop
  endfacet
  facet normal -1 0 0
    outer loop
      vertex 0 5.73473 1.98873
      vertex 0 19.7401 3.77732
      vertex 0 27 0
    endloop
  endfacet
  facet normal -1 -0 0
    outer loop
      vertex 0 18.8112 4.61373
      vertex 0 6.24315 3.13066
      vertex 0 18.7568 4.86934
    endloop
  endfacet
  facet normal -1 0 0
    outer loop
      vertex 0 6.24315 3.13066
      vertex 0 18.8112 4.61373
      vertex 0 6.24315 2.86934
    endloop
  endfacet
  facet normal -1 -0 0
    outer loop
      vertex 0 18.9175 4.375
      vertex 0 6.24315 2.86934
      vertex 0 18.8112 4.61373
    endloop
  endfacet
  facet normal -1 0 0
    outer loop
      vertex 0 6.18882 2.61373
      vertex 0 18.9175 4.375
      vertex 0 19.0711 4.16359
    endloop
  endfacet
  facet normal -1 0 0
    outer loop
      vertex 0 6.08253 2.375
      vertex 0 19.0711 4.16359
      vertex 0 19.2653 3.98873
    endloop
  endfacet
  facet normal -1 0 0
    outer loop
      vertex 0 5.92893 2.16359
      vertex 0 19.2653 3.98873
      vertex 0 19.4916 3.85807
    endloop
  endfacet
  facet normal -1 -0 0
    outer loop
      vertex 0 19.7401 3.77732
      vertex 0 5.73473 1.98873
      vertex 0 19.4916 3.85807
    endloop
  endfacet
  facet normal -1 0 0
    outer loop
      vertex 0 18.9175 4.375
      vertex 0 6.18882 2.61373
      vertex 0 6.24315 2.86934
    endloop
  endfacet
  facet normal -1 0 0
    outer loop
      vertex 0 19.0711 4.16359
      vertex 0 6.08253 2.375
      vertex 0 6.18882 2.61373
    endloop
  endfacet
  facet normal -1 0 0
    outer loop
      vertex 0 19.2653 3.98873
      vertex 0 5.92893 2.16359
      vertex 0 6.08253 2.375
    endloop
  endfacet
  facet normal -1 0 0
    outer loop
      vertex 0 19.4916 3.85807
      vertex 0 5.73473 1.98873
      vertex 0 5.92893 2.16359
    endloop
  endfacet
  facet normal -1 0 0
    outer loop
      vertex 0 27 0
      vertex 0 5.50842 1.85807
      vertex 0 5.73473 1.98873
    endloop
  endfacet
  facet normal -1 0 0
    outer loop
      vertex 0 27 0
      vertex 0 5.25989 1.77732
      vertex 0 5.50842 1.85807
    endloop
  endfacet
  facet normal -1 0 0
    outer loop
      vertex 0 0 0
      vertex 0 5.25989 1.77732
      vertex 0 27 0
    endloop
  endfacet
  facet normal -1 -0 0
    outer loop
      vertex 0 3.75685 2.86934
      vertex 0 0 0
      vertex 0 3.75685 3.13066
    endloop
  endfacet
  facet normal -1 -0 0
    outer loop
      vertex 0 3.81118 2.61373
      vertex 0 0 0
      vertex 0 3.75685 2.86934
    endloop
  endfacet
  facet normal -1 -0 0
    outer loop
      vertex 0 3.91747 2.375
      vertex 0 0 0
      vertex 0 3.81118 2.61373
    endloop
  endfacet
  facet normal -1 -0 0
    outer loop
      vertex 0 4.07107 2.16359
      vertex 0 0 0
      vertex 0 3.91747 2.375
    endloop
  endfacet
  facet normal -1 -0 0
    outer loop
      vertex 0 4.26527 1.98873
      vertex 0 0 0
      vertex 0 4.07107 2.16359
    endloop
  endfacet
  facet normal -1 -0 0
    outer loop
      vertex 0 4.49158 1.85807
      vertex 0 0 0
      vertex 0 4.26527 1.98873
    endloop
  endfacet
  facet normal -1 -0 0
    outer loop
      vertex 0 4.74011 1.77732
      vertex 0 0 0
      vertex 0 4.49158 1.85807
    endloop
  endfacet
  facet normal -1 -0 0
    outer loop
      vertex 0 5 1.75
      vertex 0 0 0
      vertex 0 4.74011 1.77732
    endloop
  endfacet
  facet normal -1 0 0
    outer loop
      vertex 0 5.25989 1.77732
      vertex 0 0 0
      vertex 0 5 1.75
    endloop
  endfacet
  facet normal -1 0 0
    outer loop
      vertex 0 21.2432 5.13066
      vertex 0 27 10
      vertex 0 21.2432 4.86934
    endloop
  endfacet
  facet normal -1 0 0
    outer loop
      vertex 0 21.1888 5.38627
      vertex 0 27 10
      vertex 0 21.2432 5.13066
    endloop
  endfacet
  facet normal -1 0 0
    outer loop
      vertex 0 21.0825 5.625
      vertex 0 27 10
      vertex 0 21.1888 5.38627
    endloop
  endfacet
  facet normal -1 0 0
    outer loop
      vertex 0 20.9289 5.83641
      vertex 0 27 10
      vertex 0 21.0825 5.625
    endloop
  endfacet
  facet normal -1 0 0
    outer loop
      vertex 0 20.7347 6.01127
      vertex 0 27 10
      vertex 0 20.9289 5.83641
    endloop
  endfacet
  facet normal -1 0 0
    outer loop
      vertex 0 20.5084 6.14193
      vertex 0 27 10
      vertex 0 20.7347 6.01127
    endloop
  endfacet
  facet normal -1 0 0
    outer loop
      vertex 0 20.2599 6.22268
      vertex 0 27 10
      vertex 0 20.5084 6.14193
    endloop
  endfacet
  facet normal -1 0 0
    outer loop
      vertex 0 20 6.25
      vertex 0 27 10
      vertex 0 20.2599 6.22268
    endloop
  endfacet
  facet normal -1 0 0
    outer loop
      vertex 0 19.7401 6.22268
      vertex 0 27 10
      vertex 0 20 6.25
    endloop
  endfacet
  facet normal -1 0 0
    outer loop
      vertex 0 0 10
      vertex 0 19.7401 6.22268
      vertex 0 19.4916 6.14193
    endloop
  endfacet
  facet normal -1 0 0
    outer loop
      vertex 0 6.18882 3.38627
      vertex 0 18.7568 4.86934
      vertex 0 6.24315 3.13066
    endloop
  endfacet
  facet normal -1 -0 0
    outer loop
      vertex 0 18.7568 4.86934
      vertex 0 6.18882 3.38627
      vertex 0 18.7568 5.13066
    endloop
  endfacet
  facet normal -1 0 0
    outer loop
      vertex 0 6.08253 3.625
      vertex 0 18.7568 5.13066
      vertex 0 6.18882 3.38627
    endloop
  endfacet
  facet normal -1 -0 0
    outer loop
      vertex 0 18.7568 5.13066
      vertex 0 6.08253 3.625
      vertex 0 18.8112 5.38627
    endloop
  endfacet
  facet normal -1 0 0
    outer loop
      vertex 0 5.92893 3.83641
      vertex 0 18.8112 5.38627
      vertex 0 6.08253 3.625
    endloop
  endfacet
  facet normal -1 -0 0
    outer loop
      vertex 0 18.8112 5.38627
      vertex 0 5.92893 3.83641
      vertex 0 18.9175 5.625
    endloop
  endfacet
  facet normal -1 0 0
    outer loop
      vertex 0 5.73473 4.01127
      vertex 0 18.9175 5.625
      vertex 0 5.92893 3.83641
    endloop
  endfacet
  facet normal -1 -0 0
    outer loop
      vertex 0 18.9175 5.625
      vertex 0 5.73473 4.01127
      vertex 0 19.0711 5.83641
    endloop
  endfacet
  facet normal -1 0 0
    outer loop
      vertex 0 5.50842 4.14193
      vertex 0 19.0711 5.83641
      vertex 0 5.73473 4.01127
    endloop
  endfacet
  facet normal -1 -0 0
    outer loop
      vertex 0 19.0711 5.83641
      vertex 0 5.50842 4.14193
      vertex 0 19.2653 6.01127
    endloop
  endfacet
  facet normal -1 0 0
    outer loop
      vertex 0 0 10
      vertex 0 19.2653 6.01127
      vertex 0 5.50842 4.14193
    endloop
  endfacet
  facet normal -1 0 0
    outer loop
      vertex 0 19.2653 6.01127
      vertex 0 0 10
      vertex 0 19.4916 6.14193
    endloop
  endfacet
  facet normal -1 0 0
    outer loop
      vertex 0 0 10
      vertex 0 5.50842 4.14193
      vertex 0 5.25989 4.22268
    endloop
  endfacet
  facet normal -1 0 0
    outer loop
      vertex 0 0 10
      vertex 0 5.25989 4.22268
      vertex 0 5 4.25
    endloop
  endfacet
  facet normal -1 0 0
    outer loop
      vertex 0 0 10
      vertex 0 5 4.25
      vertex 0 4.74011 4.22268
    endloop
  endfacet
  facet normal -1 0 0
    outer loop
      vertex 0 0 0
      vertex 0 3.81118 3.38627
      vertex 0 3.75685 3.13066
    endloop
  endfacet
  facet normal -1 0 0
    outer loop
      vertex 0 0 10
      vertex 0 3.81118 3.38627
      vertex 0 0 0
    endloop
  endfacet
  facet normal -1 0 0
    outer loop
      vertex 0 3.81118 3.38627
      vertex 0 0 10
      vertex 0 3.91747 3.625
    endloop
  endfacet
  facet normal -1 0 0
    outer loop
      vertex 0 19.7401 6.22268
      vertex 0 0 10
      vertex 0 27 10
    endloop
  endfacet
  facet normal -1 0 0
    outer loop
      vertex 0 4.49158 4.14193
      vertex 0 0 10
      vertex 0 4.74011 4.22268
    endloop
  endfacet
  facet normal -1 0 0
    outer loop
      vertex 0 4.26527 4.01127
      vertex 0 0 10
      vertex 0 4.49158 4.14193
    endloop
  endfacet
  facet normal -1 0 0
    outer loop
      vertex 0 4.07107 3.83641
      vertex 0 0 10
      vertex 0 4.26527 4.01127
    endloop
  endfacet
  facet normal -1 0 0
    outer loop
      vertex 0 3.91747 3.625
      vertex 0 0 10
      vertex 0 4.07107 3.83641
    endloop
  endfacet
  facet normal -0 0 1
    outer loop
      vertex 0 27 10
      vertex 8 0 10
      vertex 8 27 10
    endloop
  endfacet
  facet normal 0 0 1
    outer loop
      vertex 8 0 10
      vertex 0 27 10
      vertex 0 0 10
    endloop
  endfacet
  facet normal 1 0 0
    outer loop
      vertex 8 27 10
      vertex 8 24.724 5.49651
      vertex 8 27 0
    endloop
  endfacet
  facet normal 1 0 0
    outer loop
      vertex 8 27 10
      vertex 8 24.5175 6.46783
      vertex 8 24.724 5.49651
    endloop
  endfacet
  facet normal 1 0 0
    outer loop
      vertex 8 27 10
      vertex 8 24.4418 6.63793
      vertex 8 24.5175 6.46783
    endloop
  endfacet
  facet normal 1 0 0
    outer loop
      vertex 8 27 10
      vertex 8 24.1136 7.375
      vertex 8 24.4418 6.63793
    endloop
  endfacet
  facet normal 1 0 0
    outer loop
      vertex 8 27 10
      vertex 8 23.6394 8.02774
      vertex 8 24.1136 7.375
    endloop
  endfacet
  facet normal 1 0 0
    outer loop
      vertex 8 27 10
      vertex 8 23.5299 8.17837
      vertex 8 23.6394 8.02774
    endloop
  endfacet
  facet normal 1 0 0
    outer loop
      vertex 8 27 10
      vertex 8 22.792 8.84283
      vertex 8 23.5299 8.17837
    endloop
  endfacet
  facet normal 1 0 0
    outer loop
      vertex 8 27 10
      vertex 8 21.932 9.33934
      vertex 8 22.792 8.84283
    endloop
  endfacet
  facet normal 1 0 0
    outer loop
      vertex 8 27 10
      vertex 8 20.9876 9.6462
      vertex 8 21.932 9.33934
    endloop
  endfacet
  facet normal 1 0 0
    outer loop
      vertex 8 27 10
      vertex 8 20 9.75
      vertex 8 20.9876 9.6462
    endloop
  endfacet
  facet normal 1 0 0
    outer loop
      vertex 8 7.85317 3.92705
      vertex 8 15.276 4.50349
      vertex 8 15.276 5.49651
    endloop
  endfacet
  facet normal 1 0 0
    outer loop
      vertex 8 7.59808 4.5
      vertex 8 15.276 5.49651
      vertex 8 15.4825 6.46783
    endloop
  endfacet
  facet normal 1 0 0
    outer loop
      vertex 8 7.22943 5.00739
      vertex 8 15.4825 6.46783
      vertex 8 15.8864 7.375
    endloop
  endfacet
  facet normal 1 0 0
    outer loop
      vertex 8 6.22021 5.74064
      vertex 8 15.8864 7.375
      vertex 8 16.4701 8.17837
    endloop
  endfacet
  facet normal 1 0 0
    outer loop
      vertex 8 0 10
      vertex 8 16.4701 8.17837
      vertex 8 17.208 8.84283
    endloop
  endfacet
  facet normal 1 0 0
    outer loop
      vertex 8 15.276 4.50349
      vertex 8 7.85317 3.92705
      vertex 8 7.98357 3.31359
    endloop
  endfacet
  facet normal 1 0 0
    outer loop
      vertex 8 0 10
      vertex 8 17.208 8.84283
      vertex 8 18.068 9.33934
    endloop
  endfacet
  facet normal 1 0 0
    outer loop
      vertex 8 15.276 5.49651
      vertex 8 7.80215 4.04164
      vertex 8 7.85317 3.92705
    endloop
  endfacet
  facet normal 1 0 0
    outer loop
      vertex 8 15.276 5.49651
      vertex 8 7.59808 4.5
      vertex 8 7.80215 4.04164
    endloop
  endfacet
  facet normal 1 0 0
    outer loop
      vertex 8 15.4825 6.46783
      vertex 8 7.30316 4.90591
      vertex 8 7.59808 4.5
    endloop
  endfacet
  facet normal 1 0 0
    outer loop
      vertex 8 15.4825 6.46783
      vertex 8 7.22943 5.00739
      vertex 8 7.30316 4.90591
    endloop
  endfacet
  facet normal 1 0 0
    outer loop
      vertex 8 15.8864 7.375
      vertex 8 6.76336 5.42705
      vertex 8 7.22943 5.00739
    endloop
  endfacet
  facet normal 1 0 0
    outer loop
      vertex 8 15.8864 7.375
      vertex 8 6.22021 5.74064
      vertex 8 6.76336 5.42705
    endloop
  endfacet
  facet normal 1 0 0
    outer loop
      vertex 8 0 10
      vertex 8 18.068 9.33934
      vertex 8 19.0124 9.6462
    endloop
  endfacet
  facet normal 1 0 0
    outer loop
      vertex 8 16.4701 8.17837
      vertex 8 5.62373 5.93444
      vertex 8 6.22021 5.74064
    endloop
  endfacet
  facet normal 1 0 0
    outer loop
      vertex 8 16.4701 8.17837
      vertex 8 0 10
      vertex 8 5.62373 5.93444
    endloop
  endfacet
  facet normal 1 0 0
    outer loop
      vertex 8 5.62373 5.93444
      vertex 8 0 10
      vertex 8 5 6
    endloop
  endfacet
  facet normal 1 0 0
    outer loop
      vertex 8 0 0
      vertex 8 2.01643 3.31359
      vertex 8 0 10
    endloop
  endfacet
  facet normal 1 0 0
    outer loop
      vertex 8 2.14683 3.92705
      vertex 8 0 10
      vertex 8 2.01643 3.31359
    endloop
  endfacet
  facet normal 1 0 0
    outer loop
      vertex 8 2.40192 4.5
      vertex 8 0 10
      vertex 8 2.14683 3.92705
    endloop
  endfacet
  facet normal 1 0 0
    outer loop
      vertex 8 2.77057 5.00739
      vertex 8 0 10
      vertex 8 2.40192 4.5
    endloop
  endfacet
  facet normal 1 0 0
    outer loop
      vertex 8 3.23664 5.42705
      vertex 8 0 10
      vertex 8 2.77057 5.00739
    endloop
  endfacet
  facet normal 1 0 0
    outer loop
      vertex 8 3.77979 5.74064
      vertex 8 0 10
      vertex 8 3.23664 5.42705
    endloop
  endfacet
  facet normal 1 0 0
    outer loop
      vertex 8 4.37626 5.93444
      vertex 8 0 10
      vertex 8 3.77979 5.74064
    endloop
  endfacet
  facet normal 1 0 0
    outer loop
      vertex 8 5 6
      vertex 8 0 10
      vertex 8 4.37626 5.93444
    endloop
  endfacet
  facet normal 1 0 0
    outer loop
      vertex 8 20 9.75
      vertex 8 0 10
      vertex 8 19.0124 9.6462
    endloop
  endfacet
  facet normal 1 -0 0
    outer loop
      vertex 8 0 10
      vertex 8 20 9.75
      vertex 8 27 10
    endloop
  endfacet
  facet normal 1 -0 0
    outer loop
      vertex 8 24.724 4.50349
      vertex 8 27 0
      vertex 8 24.724 5.49651
    endloop
  endfacet
  facet normal 1 -0 0
    outer loop
      vertex 8 24.5175 3.53217
      vertex 8 27 0
      vertex 8 24.724 4.50349
    endloop
  endfacet
  facet normal 1 -0 0
    outer loop
      vertex 8 24.1894 2.79509
      vertex 8 27 0
      vertex 8 24.5175 3.53217
    endloop
  endfacet
  facet normal 1 -0 0
    outer loop
      vertex 8 24.1136 2.625
      vertex 8 27 0
      vertex 8 24.1894 2.79509
    endloop
  endfacet
  facet normal 1 -0 0
    outer loop
      vertex 8 24.0042 2.47437
      vertex 8 27 0
      vertex 8 24.1136 2.625
    endloop
  endfacet
  facet normal 1 -0 0
    outer loop
      vertex 8 23.5299 1.82163
      vertex 8 27 0
      vertex 8 24.0042 2.47437
    endloop
  endfacet
  facet normal 1 -0 0
    outer loop
      vertex 8 22.792 1.15717
      vertex 8 27 0
      vertex 8 23.5299 1.82163
    endloop
  endfacet
  facet normal 1 -0 0
    outer loop
      vertex 8 21.932 0.660659
      vertex 8 27 0
      vertex 8 22.792 1.15717
    endloop
  endfacet
  facet normal 1 -0 0
    outer loop
      vertex 8 20.9876 0.353799
      vertex 8 27 0
      vertex 8 21.932 0.660659
    endloop
  endfacet
  facet normal 1 -0 0
    outer loop
      vertex 8 20 0.25
      vertex 8 27 0
      vertex 8 20.9876 0.353799
    endloop
  endfacet
  facet normal 1 0 0
    outer loop
      vertex 8 7.64909 1.61459
      vertex 8 15.9958 2.47437
      vertex 8 15.8864 2.625
    endloop
  endfacet
  facet normal 1 0 0
    outer loop
      vertex 8 7.98357 3.31359
      vertex 8 15.4825 3.53217
      vertex 8 15.276 4.50349
    endloop
  endfacet
  facet normal 1 0 0
    outer loop
      vertex 8 7.98357 2.68641
      vertex 8 15.4825 3.53217
      vertex 8 7.98357 3.31359
    endloop
  endfacet
  facet normal 1 0 0
    outer loop
      vertex 8 15.4825 3.53217
      vertex 8 7.98357 2.68641
      vertex 8 15.8106 2.79509
    endloop
  endfacet
  facet normal 1 0 0
    outer loop
      vertex 8 7.85317 2.07295
      vertex 8 15.8106 2.79509
      vertex 8 7.98357 2.68641
    endloop
  endfacet
  facet normal 1 0 0
    outer loop
      vertex 8 15.8106 2.79509
      vertex 8 7.85317 2.07295
      vertex 8 15.8864 2.625
    endloop
  endfacet
  facet normal 1 0 0
    outer loop
      vertex 8 7.64909 1.61459
      vertex 8 15.8864 2.625
      vertex 8 7.85317 2.07295
    endloop
  endfacet
  facet normal 1 0 0
    outer loop
      vertex 8 15.9958 2.47437
      vertex 8 7.64909 1.61459
      vertex 8 7.59808 1.5
    endloop
  endfacet
  facet normal 1 0 0
    outer loop
      vertex 8 15.9958 2.47437
      vertex 8 7.59808 1.5
      vertex 8 16.4701 1.82163
    endloop
  endfacet
  facet normal 1 0 0
    outer loop
      vertex 8 7.52435 1.39852
      vertex 8 16.4701 1.82163
      vertex 8 7.59808 1.5
    endloop
  endfacet
  facet normal 1 0 0
    outer loop
      vertex 8 7.22943 0.992608
      vertex 8 16.4701 1.82163
      vertex 8 7.52435 1.39852
    endloop
  endfacet
  facet normal 1 0 0
    outer loop
      vertex 8 16.4701 1.82163
      vertex 8 7.22943 0.992608
      vertex 8 17.208 1.15717
    endloop
  endfacet
  facet normal 1 0 0
    outer loop
      vertex 8 6.76336 0.572948
      vertex 8 17.208 1.15717
      vertex 8 7.22943 0.992608
    endloop
  endfacet
  facet normal 1 0 0
    outer loop
      vertex 8 17.208 1.15717
      vertex 8 6.76336 0.572948
      vertex 8 18.068 0.660659
    endloop
  endfacet
  facet normal 1 0 0
    outer loop
      vertex 8 6.22021 0.259363
      vertex 8 18.068 0.660659
      vertex 8 6.76336 0.572948
    endloop
  endfacet
  facet normal 1 0 0
    outer loop
      vertex 8 18.068 0.660659
      vertex 8 6.22021 0.259363
      vertex 8 19.0124 0.353799
    endloop
  endfacet
  facet normal 1 0 0
    outer loop
      vertex 8 5.62373 0.0655565
      vertex 8 19.0124 0.353799
      vertex 8 6.22021 0.259363
    endloop
  endfacet
  facet normal 1 0 0
    outer loop
      vertex 8 19.0124 0.353799
      vertex 8 5.62373 0.0655565
      vertex 8 20 0.25
    endloop
  endfacet
  facet normal 1 0 0
    outer loop
      vertex 8 5 0
      vertex 8 20 0.25
      vertex 8 5.62373 0.0655565
    endloop
  endfacet
  facet normal 1 0 0
    outer loop
      vertex 8 20 0.25
      vertex 8 5 0
      vertex 8 27 0
    endloop
  endfacet
  facet normal 1 0 0
    outer loop
      vertex 8 2.01643 3.31359
      vertex 8 0 0
      vertex 8 2.01643 2.68641
    endloop
  endfacet
  facet normal 1 0 0
    outer loop
      vertex 8 4.37626 0.0655565
      vertex 8 0 0
      vertex 8 5 0
    endloop
  endfacet
  facet normal 1 0 0
    outer loop
      vertex 8 3.77979 0.259363
      vertex 8 0 0
      vertex 8 4.37626 0.0655565
    endloop
  endfacet
  facet normal 1 0 0
    outer loop
      vertex 8 3.23664 0.572948
      vertex 8 0 0
      vertex 8 3.77979 0.259363
    endloop
  endfacet
  facet normal 1 0 0
    outer loop
      vertex 8 2.77057 0.992608
      vertex 8 0 0
      vertex 8 3.23664 0.572948
    endloop
  endfacet
  facet normal 1 0 0
    outer loop
      vertex 8 2.47565 1.39852
      vertex 8 0 0
      vertex 8 2.77057 0.992608
    endloop
  endfacet
  facet normal 1 0 0
    outer loop
      vertex 8 2.40192 1.5
      vertex 8 0 0
      vertex 8 2.47565 1.39852
    endloop
  endfacet
  facet normal 1 0 0
    outer loop
      vertex 8 2.3509 1.61459
      vertex 8 0 0
      vertex 8 2.40192 1.5
    endloop
  endfacet
  facet normal 1 0 0
    outer loop
      vertex 8 2.14683 2.07295
      vertex 8 0 0
      vertex 8 2.3509 1.61459
    endloop
  endfacet
  facet normal 1 0 0
    outer loop
      vertex 8 2.01643 2.68641
      vertex 8 0 0
      vertex 8 2.14683 2.07295
    endloop
  endfacet
  facet normal 0 1 -0
    outer loop
      vertex 8 27 0
      vertex 0 27 10
      vertex 8 27 10
    endloop
  endfacet
  facet normal 0 1 0
    outer loop
      vertex 0 27 10
      vertex 8 27 0
      vertex 0 27 0
    endloop
  endfacet
  facet normal 0 0 -1
    outer loop
      vertex 0 0 0
      vertex 8 5 0
      vertex 8 0 0
    endloop
  endfacet
  facet normal 0 0 -1
    outer loop
      vertex 0 27 0
      vertex 8 5 0
      vertex 0 0 0
    endloop
  endfacet
  facet normal 0 0 -1
    outer loop
      vertex 8 5 0
      vertex 0 27 0
      vertex 8 27 0
    endloop
  endfacet
  facet normal 0 -1 0
    outer loop
      vertex 0 0 0
      vertex 8 0 10
      vertex 0 0 10
    endloop
  endfacet
  facet normal 0 -1 -0
    outer loop
      vertex 8 0 10
      vertex 0 0 0
      vertex 8 0 0
    endloop
  endfacet
  facet normal 0 -0.104527 0.994522
    outer loop
      vertex 0 5.25989 1.77732
      vertex 20 5 1.75
      vertex 20 5.25989 1.77732
    endloop
  endfacet
  facet normal 0 -0.104527 0.994522
    outer loop
      vertex 20 5 1.75
      vertex 0 5.25989 1.77732
      vertex 0 5 1.75
    endloop
  endfacet
  facet normal 0 -0.104531 -0.994522
    outer loop
      vertex 0 5 4.25
      vertex 20 5.25989 4.22268
      vertex 20 5 4.25
    endloop
  endfacet
  facet normal -0 -0.104531 -0.994522
    outer loop
      vertex 20 5.25989 4.22268
      vertex 0 5 4.25
      vertex 0 5.25989 4.22268
    endloop
  endfacet
  facet normal 0 1 -0
    outer loop
      vertex 20 3.75685 2.86934
      vertex 0 3.75685 3.13066
      vertex 20 3.75685 3.13066
    endloop
  endfacet
  facet normal 0 1 0
    outer loop
      vertex 0 3.75685 3.13066
      vertex 20 3.75685 2.86934
      vertex 0 3.75685 2.86934
    endloop
  endfacet
  facet normal 0 -0.309017 0.951057
    outer loop
      vertex 0 5.50842 1.85807
      vertex 20 5.25989 1.77732
      vertex 20 5.50842 1.85807
    endloop
  endfacet
  facet normal 0 -0.309017 0.951057
    outer loop
      vertex 20 5.25989 1.77732
      vertex 0 5.50842 1.85807
      vertex 0 5.25989 1.77732
    endloop
  endfacet
  facet normal 0 -0.809016 -0.587787
    outer loop
      vertex 0 6.08253 3.625
      vertex 20 5.92893 3.83641
      vertex 0 5.92893 3.83641
    endloop
  endfacet
  facet normal 0 -0.809016 -0.587787
    outer loop
      vertex 20 5.92893 3.83641
      vertex 0 6.08253 3.625
      vertex 20 6.08253 3.625
    endloop
  endfacet
  facet normal 0 -0.913546 -0.406736
    outer loop
      vertex 0 6.18882 3.38627
      vertex 20 6.08253 3.625
      vertex 0 6.08253 3.625
    endloop
  endfacet
  facet normal 0 -0.913546 -0.406736
    outer loop
      vertex 20 6.08253 3.625
      vertex 0 6.18882 3.38627
      vertex 20 6.18882 3.38627
    endloop
  endfacet
  facet normal -0 0.500001 0.866025
    outer loop
      vertex 0 4.49158 1.85807
      vertex 20 4.26527 1.98873
      vertex 20 4.49158 1.85807
    endloop
  endfacet
  facet normal 0 0.500001 0.866025
    outer loop
      vertex 20 4.26527 1.98873
      vertex 0 4.49158 1.85807
      vertex 0 4.26527 1.98873
    endloop
  endfacet
  facet normal 0 -0.500001 0.866025
    outer loop
      vertex 0 5.73473 1.98873
      vertex 20 5.50842 1.85807
      vertex 20 5.73473 1.98873
    endloop
  endfacet
  facet normal 0 -0.500001 0.866025
    outer loop
      vertex 20 5.50842 1.85807
      vertex 0 5.73473 1.98873
      vertex 0 5.50842 1.85807
    endloop
  endfacet
  facet normal 0 -0.978148 0.207912
    outer loop
      vertex 0 6.18882 2.61373
      vertex 20 6.24315 2.86934
      vertex 0 6.24315 2.86934
    endloop
  endfacet
  facet normal 0 -0.978148 0.207912
    outer loop
      vertex 20 6.24315 2.86934
      vertex 0 6.18882 2.61373
      vertex 20 6.18882 2.61373
    endloop
  endfacet
  facet normal 0 -0.809017 0.587785
    outer loop
      vertex 0 5.92893 2.16359
      vertex 20 6.08253 2.375
      vertex 0 6.08253 2.375
    endloop
  endfacet
  facet normal 0 -0.809017 0.587785
    outer loop
      vertex 20 6.08253 2.375
      vertex 0 5.92893 2.16359
      vertex 20 5.92893 2.16359
    endloop
  endfacet
  facet normal 0 -0.500001 -0.866025
    outer loop
      vertex 0 5.50842 4.14193
      vertex 20 5.73473 4.01127
      vertex 20 5.50842 4.14193
    endloop
  endfacet
  facet normal -0 -0.500001 -0.866025
    outer loop
      vertex 20 5.73473 4.01127
      vertex 0 5.50842 4.14193
      vertex 0 5.73473 4.01127
    endloop
  endfacet
  facet normal 0 -0.669131 -0.743145
    outer loop
      vertex 0 5.73473 4.01127
      vertex 20 5.92893 3.83641
      vertex 20 5.73473 4.01127
    endloop
  endfacet
  facet normal -0 -0.669131 -0.743145
    outer loop
      vertex 20 5.92893 3.83641
      vertex 0 5.73473 4.01127
      vertex 0 5.92893 3.83641
    endloop
  endfacet
  facet normal 0 -0.309017 -0.951057
    outer loop
      vertex 0 5.25989 4.22268
      vertex 20 5.50842 4.14193
      vertex 20 5.25989 4.22268
    endloop
  endfacet
  facet normal -0 -0.309017 -0.951057
    outer loop
      vertex 20 5.50842 4.14193
      vertex 0 5.25989 4.22268
      vertex 0 5.50842 4.14193
    endloop
  endfacet
  facet normal 0 -0.978148 -0.207912
    outer loop
      vertex 0 6.24315 3.13066
      vertex 20 6.18882 3.38627
      vertex 0 6.18882 3.38627
    endloop
  endfacet
  facet normal 0 -0.978148 -0.207912
    outer loop
      vertex 20 6.18882 3.38627
      vertex 0 6.24315 3.13066
      vertex 20 6.24315 3.13066
    endloop
  endfacet
  facet normal -0 0.104527 0.994522
    outer loop
      vertex 0 5 1.75
      vertex 20 4.74011 1.77732
      vertex 20 5 1.75
    endloop
  endfacet
  facet normal 0 0.104527 0.994522
    outer loop
      vertex 20 4.74011 1.77732
      vertex 0 5 1.75
      vertex 0 4.74011 1.77732
    endloop
  endfacet
  facet normal 0 -0.669131 0.743145
    outer loop
      vertex 0 5.92893 2.16359
      vertex 20 5.73473 1.98873
      vertex 20 5.92893 2.16359
    endloop
  endfacet
  facet normal 0 -0.669131 0.743145
    outer loop
      vertex 20 5.73473 1.98873
      vertex 0 5.92893 2.16359
      vertex 0 5.73473 1.98873
    endloop
  endfacet
  facet normal 0 -1 0
    outer loop
      vertex 0 6.24315 2.86934
      vertex 20 6.24315 3.13066
      vertex 0 6.24315 3.13066
    endloop
  endfacet
  facet normal 0 -1 -0
    outer loop
      vertex 20 6.24315 3.13066
      vertex 0 6.24315 2.86934
      vertex 20 6.24315 2.86934
    endloop
  endfacet
  facet normal 0 -0.913545 0.406737
    outer loop
      vertex 0 6.08253 2.375
      vertex 20 6.18882 2.61373
      vertex 0 6.18882 2.61373
    endloop
  endfacet
  facet normal 0 -0.913545 0.406737
    outer loop
      vertex 20 6.18882 2.61373
      vertex 0 6.08253 2.375
      vertex 20 6.08253 2.375
    endloop
  endfacet
  facet normal 0 0.809017 0.587785
    outer loop
      vertex 20 4.07107 2.16359
      vertex 0 3.91747 2.375
      vertex 20 3.91747 2.375
    endloop
  endfacet
  facet normal 0 0.809017 0.587785
    outer loop
      vertex 0 3.91747 2.375
      vertex 20 4.07107 2.16359
      vertex 0 4.07107 2.16359
    endloop
  endfacet
  facet normal -0 0.669131 0.743145
    outer loop
      vertex 0 4.26527 1.98873
      vertex 20 4.07107 2.16359
      vertex 20 4.26527 1.98873
    endloop
  endfacet
  facet normal 0 0.669131 0.743145
    outer loop
      vertex 20 4.07107 2.16359
      vertex 0 4.26527 1.98873
      vertex 0 4.07107 2.16359
    endloop
  endfacet
  facet normal -0 0.309017 0.951057
    outer loop
      vertex 0 4.74011 1.77732
      vertex 20 4.49158 1.85807
      vertex 20 4.74011 1.77732
    endloop
  endfacet
  facet normal 0 0.309017 0.951057
    outer loop
      vertex 20 4.49158 1.85807
      vertex 0 4.74011 1.77732
      vertex 0 4.49158 1.85807
    endloop
  endfacet
  facet normal 0 0.669131 -0.743145
    outer loop
      vertex 0 4.07107 3.83641
      vertex 20 4.26527 4.01127
      vertex 20 4.07107 3.83641
    endloop
  endfacet
  facet normal 0 0.669131 -0.743145
    outer loop
      vertex 20 4.26527 4.01127
      vertex 0 4.07107 3.83641
      vertex 0 4.26527 4.01127
    endloop
  endfacet
  facet normal 0 0.978148 -0.207912
    outer loop
      vertex 20 3.75685 3.13066
      vertex 0 3.81118 3.38627
      vertex 20 3.81118 3.38627
    endloop
  endfacet
  facet normal 0 0.978148 -0.207912
    outer loop
      vertex 0 3.81118 3.38627
      vertex 20 3.75685 3.13066
      vertex 0 3.75685 3.13066
    endloop
  endfacet
  facet normal 0 0.500001 -0.866025
    outer loop
      vertex 0 4.26527 4.01127
      vertex 20 4.49158 4.14193
      vertex 20 4.26527 4.01127
    endloop
  endfacet
  facet normal 0 0.500001 -0.866025
    outer loop
      vertex 20 4.49158 4.14193
      vertex 0 4.26527 4.01127
      vertex 0 4.49158 4.14193
    endloop
  endfacet
  facet normal 0 0.309017 -0.951057
    outer loop
      vertex 0 4.49158 4.14193
      vertex 20 4.74011 4.22268
      vertex 20 4.49158 4.14193
    endloop
  endfacet
  facet normal 0 0.309017 -0.951057
    outer loop
      vertex 20 4.74011 4.22268
      vertex 0 4.49158 4.14193
      vertex 0 4.74011 4.22268
    endloop
  endfacet
  facet normal 0 0.10453 -0.994522
    outer loop
      vertex 0 4.74011 4.22268
      vertex 20 5 4.25
      vertex 20 4.74011 4.22268
    endloop
  endfacet
  facet normal 0 0.10453 -0.994522
    outer loop
      vertex 20 5 4.25
      vertex 0 4.74011 4.22268
      vertex 0 5 4.25
    endloop
  endfacet
  facet normal 0 0.913545 0.406737
    outer loop
      vertex 20 3.91747 2.375
      vertex 0 3.81118 2.61373
      vertex 20 3.81118 2.61373
    endloop
  endfacet
  facet normal 0 0.913545 0.406737
    outer loop
      vertex 0 3.81118 2.61373
      vertex 20 3.91747 2.375
      vertex 0 3.91747 2.375
    endloop
  endfacet
  facet normal 0 0.978148 0.207912
    outer loop
      vertex 20 3.81118 2.61373
      vertex 0 3.75685 2.86934
      vertex 20 3.75685 2.86934
    endloop
  endfacet
  facet normal 0 0.978148 0.207912
    outer loop
      vertex 0 3.75685 2.86934
      vertex 20 3.81118 2.61373
      vertex 0 3.81118 2.61373
    endloop
  endfacet
  facet normal 0 0.913546 -0.406736
    outer loop
      vertex 20 3.81118 3.38627
      vertex 0 3.91747 3.625
      vertex 20 3.91747 3.625
    endloop
  endfacet
  facet normal 0 0.913546 -0.406736
    outer loop
      vertex 0 3.91747 3.625
      vertex 20 3.81118 3.38627
      vertex 0 3.81118 3.38627
    endloop
  endfacet
  facet normal 0 0.809016 -0.587787
    outer loop
      vertex 20 3.91747 3.625
      vertex 0 4.07107 3.83641
      vertex 20 4.07107 3.83641
    endloop
  endfacet
  facet normal 0 0.809016 -0.587787
    outer loop
      vertex 0 4.07107 3.83641
      vertex 20 3.91747 3.625
      vertex 0 3.91747 3.625
    endloop
  endfacet
  facet normal 0 -0.104527 0.994522
    outer loop
      vertex 0 20.2599 3.77732
      vertex 21 20 3.75
      vertex 21 20.2599 3.77732
    endloop
  endfacet
  facet normal 0 -0.104527 0.994522
    outer loop
      vertex 21 20 3.75
      vertex 0 20.2599 3.77732
      vertex 0 20 3.75
    endloop
  endfacet
  facet normal 0 -0.104531 -0.994522
    outer loop
      vertex 0 20 6.25
      vertex 21 20.2599 6.22268
      vertex 21 20 6.25
    endloop
  endfacet
  facet normal -0 -0.104531 -0.994522
    outer loop
      vertex 21 20.2599 6.22268
      vertex 0 20 6.25
      vertex 0 20.2599 6.22268
    endloop
  endfacet
  facet normal 0 1 -0
    outer loop
      vertex 21 18.7568 4.86934
      vertex 0 18.7568 5.13066
      vertex 21 18.7568 5.13066
    endloop
  endfacet
  facet normal 0 1 0
    outer loop
      vertex 0 18.7568 5.13066
      vertex 21 18.7568 4.86934
      vertex 0 18.7568 4.86934
    endloop
  endfacet
  facet normal 0 -0.309018 0.951056
    outer loop
      vertex 0 20.5084 3.85807
      vertex 21 20.2599 3.77732
      vertex 21 20.5084 3.85807
    endloop
  endfacet
  facet normal 0 -0.309018 0.951056
    outer loop
      vertex 21 20.2599 3.77732
      vertex 0 20.5084 3.85807
      vertex 0 20.2599 3.77732
    endloop
  endfacet
  facet normal 0 -0.809016 -0.587787
    outer loop
      vertex 0 21.0825 5.625
      vertex 21 20.9289 5.83641
      vertex 0 20.9289 5.83641
    endloop
  endfacet
  facet normal 0 -0.809016 -0.587787
    outer loop
      vertex 21 20.9289 5.83641
      vertex 0 21.0825 5.625
      vertex 21 21.0825 5.625
    endloop
  endfacet
  facet normal 0 -0.913546 -0.406736
    outer loop
      vertex 0 21.1888 5.38627
      vertex 21 21.0825 5.625
      vertex 0 21.0825 5.625
    endloop
  endfacet
  facet normal 0 -0.913546 -0.406736
    outer loop
      vertex 21 21.0825 5.625
      vertex 0 21.1888 5.38627
      vertex 21 21.1888 5.38627
    endloop
  endfacet
  facet normal -0 0.500001 0.866025
    outer loop
      vertex 0 19.4916 3.85807
      vertex 21 19.2653 3.98873
      vertex 21 19.4916 3.85807
    endloop
  endfacet
  facet normal 0 0.500001 0.866025
    outer loop
      vertex 21 19.2653 3.98873
      vertex 0 19.4916 3.85807
      vertex 0 19.2653 3.98873
    endloop
  endfacet
  facet normal 0 -0.500001 0.866025
    outer loop
      vertex 0 20.7347 3.98873
      vertex 21 20.5084 3.85807
      vertex 21 20.7347 3.98873
    endloop
  endfacet
  facet normal 0 -0.500001 0.866025
    outer loop
      vertex 21 20.5084 3.85807
      vertex 0 20.7347 3.98873
      vertex 0 20.5084 3.85807
    endloop
  endfacet
  facet normal 0 -0.978147 0.207916
    outer loop
      vertex 0 21.1888 4.61373
      vertex 21 21.2432 4.86934
      vertex 0 21.2432 4.86934
    endloop
  endfacet
  facet normal 0 -0.978147 0.207916
    outer loop
      vertex 21 21.2432 4.86934
      vertex 0 21.1888 4.61373
      vertex 21 21.1888 4.61373
    endloop
  endfacet
  facet normal 0 -0.809017 0.587785
    outer loop
      vertex 0 20.9289 4.16359
      vertex 21 21.0825 4.375
      vertex 0 21.0825 4.375
    endloop
  endfacet
  facet normal 0 -0.809017 0.587785
    outer loop
      vertex 21 21.0825 4.375
      vertex 0 20.9289 4.16359
      vertex 21 20.9289 4.16359
    endloop
  endfacet
  facet normal 0 -0.500001 -0.866025
    outer loop
      vertex 0 20.5084 6.14193
      vertex 21 20.7347 6.01127
      vertex 21 20.5084 6.14193
    endloop
  endfacet
  facet normal -0 -0.500001 -0.866025
    outer loop
      vertex 21 20.7347 6.01127
      vertex 0 20.5084 6.14193
      vertex 0 20.7347 6.01127
    endloop
  endfacet
  facet normal 0 -0.669129 -0.743146
    outer loop
      vertex 0 20.7347 6.01127
      vertex 21 20.9289 5.83641
      vertex 21 20.7347 6.01127
    endloop
  endfacet
  facet normal -0 -0.669129 -0.743146
    outer loop
      vertex 21 20.9289 5.83641
      vertex 0 20.7347 6.01127
      vertex 0 20.9289 5.83641
    endloop
  endfacet
  facet normal 0 -0.309018 -0.951056
    outer loop
      vertex 0 20.2599 6.22268
      vertex 21 20.5084 6.14193
      vertex 21 20.2599 6.22268
    endloop
  endfacet
  facet normal -0 -0.309018 -0.951056
    outer loop
      vertex 21 20.5084 6.14193
      vertex 0 20.2599 6.22268
      vertex 0 20.5084 6.14193
    endloop
  endfacet
  facet normal 0 -0.978147 -0.207916
    outer loop
      vertex 0 21.2432 5.13066
      vertex 21 21.1888 5.38627
      vertex 0 21.1888 5.38627
    endloop
  endfacet
  facet normal 0 -0.978147 -0.207916
    outer loop
      vertex 21 21.1888 5.38627
      vertex 0 21.2432 5.13066
      vertex 21 21.2432 5.13066
    endloop
  endfacet
  facet normal -0 0.104526 0.994522
    outer loop
      vertex 0 20 3.75
      vertex 21 19.7401 3.77732
      vertex 21 20 3.75
    endloop
  endfacet
  facet normal 0 0.104526 0.994522
    outer loop
      vertex 21 19.7401 3.77732
      vertex 0 20 3.75
      vertex 0 19.7401 3.77732
    endloop
  endfacet
  facet normal 0 -0.669129 0.743146
    outer loop
      vertex 0 20.9289 4.16359
      vertex 21 20.7347 3.98873
      vertex 21 20.9289 4.16359
    endloop
  endfacet
  facet normal 0 -0.669129 0.743146
    outer loop
      vertex 21 20.7347 3.98873
      vertex 0 20.9289 4.16359
      vertex 0 20.7347 3.98873
    endloop
  endfacet
  facet normal 0 -1 0
    outer loop
      vertex 0 21.2432 4.86934
      vertex 21 21.2432 5.13066
      vertex 0 21.2432 5.13066
    endloop
  endfacet
  facet normal 0 -1 -0
    outer loop
      vertex 21 21.2432 5.13066
      vertex 0 21.2432 4.86934
      vertex 21 21.2432 4.86934
    endloop
  endfacet
  facet normal 0 -0.913545 0.406737
    outer loop
      vertex 0 21.0825 4.375
      vertex 21 21.1888 4.61373
      vertex 0 21.1888 4.61373
    endloop
  endfacet
  facet normal 0 -0.913545 0.406737
    outer loop
      vertex 21 21.1888 4.61373
      vertex 0 21.0825 4.375
      vertex 21 21.0825 4.375
    endloop
  endfacet
  facet normal 0 0.809021 0.58778
    outer loop
      vertex 21 19.0711 4.16359
      vertex 0 18.9175 4.375
      vertex 21 18.9175 4.375
    endloop
  endfacet
  facet normal 0 0.809021 0.58778
    outer loop
      vertex 0 18.9175 4.375
      vertex 21 19.0711 4.16359
      vertex 0 19.0711 4.16359
    endloop
  endfacet
  facet normal -0 0.669129 0.743146
    outer loop
      vertex 0 19.2653 3.98873
      vertex 21 19.0711 4.16359
      vertex 21 19.2653 3.98873
    endloop
  endfacet
  facet normal 0 0.669129 0.743146
    outer loop
      vertex 21 19.0711 4.16359
      vertex 0 19.2653 3.98873
      vertex 0 19.0711 4.16359
    endloop
  endfacet
  facet normal -0 0.309018 0.951056
    outer loop
      vertex 0 19.7401 3.77732
      vertex 21 19.4916 3.85807
      vertex 21 19.7401 3.77732
    endloop
  endfacet
  facet normal 0 0.309018 0.951056
    outer loop
      vertex 21 19.4916 3.85807
      vertex 0 19.7401 3.77732
      vertex 0 19.4916 3.85807
    endloop
  endfacet
  facet normal 0 0.669129 -0.743146
    outer loop
      vertex 0 19.0711 5.83641
      vertex 21 19.2653 6.01127
      vertex 21 19.0711 5.83641
    endloop
  endfacet
  facet normal 0 0.669129 -0.743146
    outer loop
      vertex 21 19.2653 6.01127
      vertex 0 19.0711 5.83641
      vertex 0 19.2653 6.01127
    endloop
  endfacet
  facet normal 0 0.978147 -0.207916
    outer loop
      vertex 21 18.7568 5.13066
      vertex 0 18.8112 5.38627
      vertex 21 18.8112 5.38627
    endloop
  endfacet
  facet normal 0 0.978147 -0.207916
    outer loop
      vertex 0 18.8112 5.38627
      vertex 21 18.7568 5.13066
      vertex 0 18.7568 5.13066
    endloop
  endfacet
  facet normal 0 0.500001 -0.866025
    outer loop
      vertex 0 19.2653 6.01127
      vertex 21 19.4916 6.14193
      vertex 21 19.2653 6.01127
    endloop
  endfacet
  facet normal 0 0.500001 -0.866025
    outer loop
      vertex 21 19.4916 6.14193
      vertex 0 19.2653 6.01127
      vertex 0 19.4916 6.14193
    endloop
  endfacet
  facet normal 0 0.309018 -0.951056
    outer loop
      vertex 0 19.4916 6.14193
      vertex 21 19.7401 6.22268
      vertex 21 19.4916 6.14193
    endloop
  endfacet
  facet normal 0 0.309018 -0.951056
    outer loop
      vertex 21 19.7401 6.22268
      vertex 0 19.4916 6.14193
      vertex 0 19.7401 6.22268
    endloop
  endfacet
  facet normal 0 0.10453 -0.994522
    outer loop
      vertex 0 19.7401 6.22268
      vertex 21 20 6.25
      vertex 21 19.7401 6.22268
    endloop
  endfacet
  facet normal 0 0.10453 -0.994522
    outer loop
      vertex 21 20 6.25
      vertex 0 19.7401 6.22268
      vertex 0 20 6.25
    endloop
  endfacet
  facet normal 0 0.913545 0.406737
    outer loop
      vertex 21 18.9175 4.375
      vertex 0 18.8112 4.61373
      vertex 21 18.8112 4.61373
    endloop
  endfacet
  facet normal 0 0.913545 0.406737
    outer loop
      vertex 0 18.8112 4.61373
      vertex 21 18.9175 4.375
      vertex 0 18.9175 4.375
    endloop
  endfacet
  facet normal 0 0.978147 0.207916
    outer loop
      vertex 21 18.8112 4.61373
      vertex 0 18.7568 4.86934
      vertex 21 18.7568 4.86934
    endloop
  endfacet
  facet normal 0 0.978147 0.207916
    outer loop
      vertex 0 18.7568 4.86934
      vertex 21 18.8112 4.61373
      vertex 0 18.8112 4.61373
    endloop
  endfacet
  facet normal 0 0.913546 -0.406736
    outer loop
      vertex 21 18.8112 5.38627
      vertex 0 18.9175 5.625
      vertex 21 18.9175 5.625
    endloop
  endfacet
  facet normal 0 0.913546 -0.406736
    outer loop
      vertex 0 18.9175 5.625
      vertex 21 18.8112 5.38627
      vertex 0 18.8112 5.38627
    endloop
  endfacet
  facet normal 0 0.809019 -0.587782
    outer loop
      vertex 21 18.9175 5.625
      vertex 0 19.0711 5.83641
      vertex 21 19.0711 5.83641
    endloop
  endfacet
  facet normal 0 0.809019 -0.587782
    outer loop
      vertex 0 19.0711 5.83641
      vertex 21 18.9175 5.625
      vertex 0 18.9175 5.625
    endloop
  endfacet
endsolid OpenSCAD_Model
